G04*
G04 #@! TF.GenerationSoftware,Altium Limited,Altium Designer,22.6.1 (34)*
G04*
G04 Layer_Color=32896*
%FSLAX44Y44*%
%MOMM*%
G71*
G04*
G04 #@! TF.SameCoordinates,34CEF4AE-E416-4031-B028-95ACDE368F96*
G04*
G04*
G04 #@! TF.FilePolarity,Positive*
G04*
G01*
G75*
%ADD10C,0.2500*%
%ADD11C,0.2540*%
%ADD12C,0.1000*%
%ADD13C,0.0500*%
%ADD14C,0.2000*%
%ADD15R,0.5750X1.7750*%
%ADD82C,0.0900*%
%ADD83C,0.0800*%
D10*
X1110950Y985750D02*
G03*
X1110950Y985750I-1250J0D01*
G01*
X1366250Y973850D02*
G03*
X1366250Y973850I-1250J0D01*
G01*
X1337505Y887488D02*
G03*
X1337505Y887488I-1250J0D01*
G01*
X979750Y883500D02*
G03*
X979750Y883500I-1250J0D01*
G01*
D11*
X1332490Y920331D02*
X1340820D01*
X1342486Y918664D01*
Y915332D01*
X1340820Y913666D01*
X1332490D01*
Y903669D02*
X1334156Y907001D01*
X1337488Y910334D01*
X1340820D01*
X1342486Y908668D01*
Y905335D01*
X1340820Y903669D01*
X1339154D01*
X1337488Y905335D01*
Y910334D01*
X1178304Y923382D02*
Y936078D01*
X1180843Y938617D01*
X1185922D01*
X1188461Y936078D01*
Y923382D01*
X1193539Y925922D02*
X1196078Y923382D01*
X1201157D01*
X1203696Y925922D01*
Y928461D01*
X1201157Y931000D01*
X1198617D01*
X1201157D01*
X1203696Y933539D01*
Y936078D01*
X1201157Y938617D01*
X1196078D01*
X1193539Y936078D01*
X984169Y896751D02*
Y905082D01*
X985835Y906748D01*
X989168D01*
X990834Y905082D01*
Y896751D01*
X1000831Y906748D02*
X994166D01*
X1000831Y900084D01*
Y898418D01*
X999165Y896751D01*
X995832D01*
X994166Y898418D01*
D12*
X1075453Y916467D02*
G03*
X1075453Y916467I-100J0D01*
G01*
X1077668Y984501D02*
X1081000Y989499D01*
Y984501D02*
X1077668Y989499D01*
X1082666D02*
X1084332D01*
X1083499D01*
Y984501D01*
X1082666Y985334D01*
X1386831Y997299D02*
Y988968D01*
X1385165Y987302D01*
X1381832D01*
X1380166Y988968D01*
Y997299D01*
X1370170D02*
X1376834D01*
Y992300D01*
X1373502Y993966D01*
X1371836D01*
X1370170Y992300D01*
Y988968D01*
X1371836Y987302D01*
X1375168D01*
X1376834Y988968D01*
X1084833Y895334D02*
Y898666D01*
X1085666Y899499D01*
X1087332D01*
X1088165Y898666D01*
Y895334D01*
X1087332Y894501D01*
X1085666D01*
X1086499Y896167D02*
X1084833Y894501D01*
X1085666D02*
X1084833Y895334D01*
X1079835Y894501D02*
X1083167D01*
X1079835Y897833D01*
Y898666D01*
X1080668Y899499D01*
X1082334D01*
X1083167Y898666D01*
D13*
X876754Y952704D02*
X877254Y953204D01*
X878254D01*
X878753Y952704D01*
Y950705D01*
X878254Y950205D01*
X877254D01*
X876754Y950705D01*
X875754D02*
X875255Y950205D01*
X874255D01*
X873755Y950705D01*
Y952704D01*
X874255Y953204D01*
X875255D01*
X875754Y952704D01*
Y952204D01*
X875255Y951704D01*
X873755D01*
D14*
X1039250Y914750D02*
Y927500D01*
Y914750D02*
X1062500D01*
Y927500D01*
X1039250D02*
X1062500D01*
X1129220Y1022144D02*
X1164780D01*
Y1003602D02*
Y1022144D01*
X1129220Y1003602D02*
Y1022144D01*
Y1003602D02*
X1164780D01*
X1062204Y952456D02*
Y1021798D01*
X1100050D01*
Y952456D02*
Y1021798D01*
X1062204Y952456D02*
X1100050D01*
X1038144Y958220D02*
Y993780D01*
X1019602Y958220D02*
X1038144D01*
X1019602Y993780D02*
X1038144D01*
X1019602Y958220D02*
Y993780D01*
X1067842Y936627D02*
X1103402D01*
X1067842D02*
Y955169D01*
X1103402Y936627D02*
Y955169D01*
X1067842D02*
X1103402D01*
X1336144Y982971D02*
Y1018531D01*
X1317602Y982971D02*
X1336144D01*
X1317602Y1018531D02*
X1336144D01*
X1317602Y982971D02*
Y1018531D01*
X1060144Y876970D02*
Y912530D01*
X1041602Y876970D02*
X1060144D01*
X1041602Y912530D02*
X1060144D01*
X1041602Y876970D02*
Y912530D01*
X846500Y940250D02*
Y963500D01*
X859250D01*
Y940250D02*
Y963500D01*
X846500Y940250D02*
X859250D01*
X1165500Y1007500D02*
X1188750D01*
X1165500D02*
Y1020250D01*
X1188750D01*
Y1007500D02*
Y1020250D01*
X1322500Y959250D02*
Y982500D01*
X1335250D01*
Y959250D02*
Y982500D01*
X1322500Y959250D02*
X1335250D01*
X1049500Y999250D02*
X1062250D01*
Y1022500D01*
X1049500D02*
X1062250D01*
X1049500Y999250D02*
Y1022500D01*
X1037300Y993828D02*
X1061938D01*
X1037300Y952426D02*
Y993828D01*
Y952426D02*
X1061938D01*
Y993828D01*
X864427Y971180D02*
X889065D01*
X864427Y929778D02*
Y971180D01*
Y929778D02*
X889065D01*
Y971180D01*
X890062Y930172D02*
X914700D01*
Y971574D01*
X890062D02*
X914700D01*
X890062Y930172D02*
Y971574D01*
X1419296Y905604D02*
X1444188D01*
X1419296Y892396D02*
Y905604D01*
Y892396D02*
X1444188D01*
Y905604D01*
X1100550Y1006380D02*
X1125950D01*
Y1021620D01*
X1100550D02*
X1125950D01*
X1100550Y1006380D02*
Y1021620D01*
X1307380Y958050D02*
Y983450D01*
Y958050D02*
X1322620D01*
Y983450D01*
X1307380D02*
X1322620D01*
X1189550Y1021620D02*
X1214950D01*
X1189550Y1006380D02*
Y1021620D01*
Y1006380D02*
X1214950D01*
Y1021620D01*
X1070780Y920380D02*
Y935620D01*
X1098720D01*
Y920380D02*
Y935620D01*
X1070780Y920380D02*
X1098720D01*
X1101940Y1004040D02*
X1297520D01*
X1101940Y873230D02*
X1297520D01*
X1101940D02*
Y1004040D01*
X1297520Y873230D02*
Y1004040D01*
X938126Y901050D02*
X953620D01*
X938126D02*
Y926000D01*
X953620Y901050D02*
Y926000D01*
X938126D02*
X953620D01*
X938126Y876050D02*
X953620D01*
X938126D02*
Y901000D01*
X953620Y876050D02*
Y901000D01*
X938126D02*
X953620D01*
X1004950Y937126D02*
Y952620D01*
X980000Y937126D02*
X1004950D01*
X980000Y952620D02*
X1004950D01*
X980000Y937126D02*
Y952620D01*
X955051Y937380D02*
Y952874D01*
X980001D01*
X955051Y937380D02*
X980001D01*
Y952874D01*
X1064750Y921146D02*
X1101780D01*
X1064750Y873750D02*
X1101780D01*
X1064750D02*
Y921146D01*
X1101780Y873750D02*
Y921146D01*
X1336030Y1021860D02*
X1420376D01*
Y962100D02*
Y1021860D01*
X1336030Y962100D02*
X1420376D01*
X1336030D02*
Y1021860D01*
X1419560Y872988D02*
Y947830D01*
X1297894D02*
X1419560D01*
X1297894Y872988D02*
X1419560D01*
X1297894D02*
Y947830D01*
X954250Y875750D02*
Y935922D01*
X1036910Y875750D02*
Y935922D01*
X954250Y875750D02*
X1036910D01*
X954250Y935922D02*
X1036910D01*
X1417966Y874250D02*
Y891750D01*
X1448813D01*
X1417966Y874250D02*
X1448813D01*
Y891750D01*
D15*
X1420841Y883125D02*
D03*
D82*
X1451499Y903749D02*
X1448501D01*
Y902249D01*
X1449000Y901749D01*
X1450000D01*
X1450500Y902249D01*
Y903749D01*
Y902749D02*
X1451499Y901749D01*
Y900750D02*
Y899750D01*
Y900250D01*
X1448501D01*
X1449000Y900750D01*
X1448501Y898251D02*
Y896251D01*
X1449000D01*
X1451000Y898251D01*
X1451499D01*
D83*
X1453000Y886499D02*
X1455999D01*
Y885000D01*
X1455500Y884500D01*
X1453500D01*
X1453000Y885000D01*
Y886499D01*
X1455999Y881501D02*
Y883500D01*
X1454000Y881501D01*
X1453500D01*
X1453000Y882001D01*
Y883000D01*
X1453500Y883500D01*
M02*
