G04*
G04 #@! TF.GenerationSoftware,Altium Limited,Altium Designer,22.6.1 (34)*
G04*
G04 Layer_Color=8421504*
%FSLAX44Y44*%
%MOMM*%
G71*
G04*
G04 #@! TF.SameCoordinates,68862BAA-0075-4294-9CF4-793137098D5D*
G04*
G04*
G04 #@! TF.FilePolarity,Positive*
G04*
G01*
G75*
%ADD16R,0.6500X0.6000*%
%ADD17R,1.1000X1.1000*%
%ADD18R,1.1000X1.1000*%
%ADD19R,0.5000X0.5000*%
%ADD20R,0.5000X0.5000*%
%ADD21R,2.4000X4.0000*%
%ADD22R,1.6000X0.7500*%
%ADD23R,1.2000X0.8000*%
%ADD24R,0.6000X0.6000*%
%ADD25R,0.6000X0.6000*%
%ADD26R,1.3000X2.4000*%
%ADD27R,0.8000X1.2000*%
%ADD28R,0.9000X0.8000*%
%ADD29R,1.0000X1.0000*%
%ADD30O,1.9000X0.7000*%
%ADD31R,0.3000X0.8000*%
%ADD32R,1.9500X0.6500*%
D16*
X1388000Y1015000D02*
D03*
X1378000Y995000D02*
D03*
X1397000D02*
D03*
D17*
X1056750Y970000D02*
D03*
X1073250D02*
D03*
X1178750Y883000D02*
D03*
X1195250D02*
D03*
X1140750D02*
D03*
X1157250D02*
D03*
X962000Y1012000D02*
D03*
X978500D02*
D03*
D18*
X1462000Y908750D02*
D03*
Y925250D02*
D03*
D19*
X1414000Y1005000D02*
D03*
Y995000D02*
D03*
X1077000Y1014000D02*
D03*
Y1004000D02*
D03*
X1063000Y1014000D02*
D03*
Y1004000D02*
D03*
D20*
X1074000Y989000D02*
D03*
X1064000D02*
D03*
X985000Y973000D02*
D03*
X995000D02*
D03*
X1218000Y1015000D02*
D03*
X1228000D02*
D03*
D21*
X1225000Y939000D02*
D03*
X1349000D02*
D03*
D22*
X1407000Y952000D02*
D03*
X1406746Y976704D02*
D03*
X1382746Y976704D02*
D03*
X1383000Y952000D02*
D03*
D23*
X1019000Y993000D02*
D03*
Y1012000D02*
D03*
X1044000Y1012500D02*
D03*
Y993500D02*
D03*
D24*
X1461000Y881162D02*
D03*
Y892000D02*
D03*
D25*
X1407162Y931000D02*
D03*
X1418000D02*
D03*
X1358750Y1015000D02*
D03*
X1348000D02*
D03*
X1332750Y1015000D02*
D03*
X1322000D02*
D03*
X1012500Y972000D02*
D03*
X1023250D02*
D03*
X1453000Y979000D02*
D03*
X1463500D02*
D03*
D26*
X1381000Y899000D02*
D03*
X1441000D02*
D03*
D27*
X1099570Y883000D02*
D03*
X1122430D02*
D03*
D28*
X997000Y1011500D02*
D03*
Y990500D02*
D03*
D29*
X1438000Y1011000D02*
D03*
Y993500D02*
D03*
X1462000Y1002250D02*
D03*
D30*
X1068500Y897950D02*
D03*
Y910650D02*
D03*
Y923350D02*
D03*
Y936050D02*
D03*
X963500D02*
D03*
Y923350D02*
D03*
Y910650D02*
D03*
Y897950D02*
D03*
D31*
X1392500Y932000D02*
D03*
X1379500D02*
D03*
D32*
X1192500Y1016000D02*
D03*
Y1003300D02*
D03*
Y990600D02*
D03*
Y977900D02*
D03*
Y965200D02*
D03*
Y952500D02*
D03*
Y939800D02*
D03*
Y927100D02*
D03*
Y914400D02*
D03*
Y901700D02*
D03*
X1098000D02*
D03*
Y914400D02*
D03*
Y927100D02*
D03*
Y939800D02*
D03*
Y952500D02*
D03*
Y965200D02*
D03*
Y977900D02*
D03*
Y990600D02*
D03*
Y1003300D02*
D03*
Y1016000D02*
D03*
M02*
