G04*
G04 #@! TF.GenerationSoftware,Altium Limited,Altium Designer,22.6.1 (34)*
G04*
G04 Layer_Color=65535*
%FSLAX44Y44*%
%MOMM*%
G71*
G04*
G04 #@! TF.SameCoordinates,499910AD-9B8C-4153-9010-BA54DE613A27*
G04*
G04*
G04 #@! TF.FilePolarity,Positive*
G04*
G01*
G75*
%ADD10C,0.2540*%
%ADD11C,0.1000*%
%ADD12C,0.2500*%
%ADD13C,0.1520*%
%ADD14C,0.2000*%
%ADD15C,0.0500*%
%ADD16R,0.4826X1.5494*%
D10*
X928016Y935288D02*
G03*
X928016Y935288I-254J0D01*
G01*
X905146Y966188D02*
G03*
X905146Y966188I-254J0D01*
G01*
X1488254Y1007558D02*
G03*
X1488254Y1007558I-254J0D01*
G01*
X1489254Y928958D02*
G03*
X1489254Y928958I-254J0D01*
G01*
X1134579Y973832D02*
Y965502D01*
X1136246Y963836D01*
X1139578D01*
X1141244Y965502D01*
Y973832D01*
X1144576Y963836D02*
X1147908D01*
X1146242D01*
Y973832D01*
X1144576Y972166D01*
X1293156Y885382D02*
Y887922D01*
X1288078Y893000D01*
X1283000Y887922D01*
Y885382D01*
X1288078Y893000D02*
Y900618D01*
X1277922D02*
X1272843D01*
X1275382D01*
Y885382D01*
X1277922Y887922D01*
X1496369Y937398D02*
Y927402D01*
Y932400D01*
X1503034D01*
Y937398D01*
Y927402D01*
X1513031D02*
X1506366D01*
X1513031Y934066D01*
Y935732D01*
X1511364Y937398D01*
X1508032D01*
X1506366Y935732D01*
X1497036Y1014998D02*
Y1005002D01*
Y1010000D01*
X1503700D01*
Y1014998D01*
Y1005002D01*
X1507032D02*
X1510365D01*
X1508698D01*
Y1014998D01*
X1507032Y1013332D01*
D11*
X1445868Y1013968D02*
G03*
X1445868Y1013968I-100J0D01*
G01*
X1407904Y988824D02*
Y1011176D01*
Y988824D02*
X1420096D01*
Y1011176D01*
X1407904D02*
X1420096D01*
X1070904Y997824D02*
Y1020176D01*
Y997824D02*
X1083096D01*
Y1020176D01*
X1070904D02*
X1083096D01*
X1057824Y995346D02*
X1080176D01*
X1057824Y983154D02*
Y995346D01*
Y983154D02*
X1080176D01*
Y995346D01*
X974324Y962154D02*
X996676D01*
Y974346D01*
X974324D02*
X996676D01*
X974324Y962154D02*
Y974346D01*
X1059180Y997792D02*
Y1020144D01*
Y997792D02*
X1071372D01*
Y1020144D01*
X1059180D02*
X1071372D01*
X1395443Y944540D02*
Y984418D01*
Y944540D02*
X1418557D01*
Y984418D01*
X1395443D02*
X1418557D01*
X1020318Y980694D02*
Y1020572D01*
X997204D02*
X1020318D01*
X997204Y980694D02*
Y1020572D01*
Y980694D02*
X1020318D01*
X1368298Y939800D02*
X1393698D01*
Y987552D01*
X1368298D02*
X1393698D01*
X1368298Y939800D02*
Y987552D01*
X1027176Y1021842D02*
X1052576D01*
X1027176Y974090D02*
Y1021842D01*
Y974090D02*
X1052576D01*
Y1021842D01*
X1457198Y876808D02*
Y899160D01*
Y876808D02*
X1469390D01*
Y899160D01*
X1457198D02*
X1469390D01*
X1401574Y937096D02*
X1423926D01*
X1401574Y924904D02*
Y937096D01*
Y924904D02*
X1423926D01*
Y937096D01*
X1342074Y1007654D02*
X1364426D01*
Y1019846D01*
X1342074D02*
X1364426D01*
X1342074Y1007654D02*
Y1019846D01*
X1316074Y1008904D02*
X1338426D01*
Y1021096D01*
X1316074D02*
X1338426D01*
X1316074Y1008904D02*
Y1021096D01*
X1004062Y975360D02*
X1026414D01*
X1004062Y963168D02*
Y975360D01*
Y963168D02*
X1026414D01*
Y975360D01*
X1419140Y887386D02*
X1429300D01*
X1424220Y882306D02*
Y892466D01*
X1114304Y1015109D02*
X1116147Y1016951D01*
Y1011251D02*
Y1016951D01*
X1114304Y1011174D02*
X1118114D01*
X1421001Y905416D02*
X1420168Y906249D01*
X1418502D01*
X1417669Y905416D01*
Y902084D01*
X1418502Y901251D01*
X1420168D01*
X1421001Y902084D01*
X1425999Y901251D02*
X1422667D01*
X1425999Y904583D01*
Y905416D01*
X1425166Y906249D01*
X1423500D01*
X1422667Y905416D01*
X1427665Y901251D02*
X1429331D01*
X1428498D01*
Y906249D01*
X1427665Y905416D01*
X1450244Y1003358D02*
X1446912D01*
X1446079Y1002525D01*
Y1000859D01*
X1446912Y1000026D01*
X1450244D01*
X1451077Y1000859D01*
Y1002525D01*
X1449411Y1001692D02*
X1451077Y1003358D01*
Y1002525D02*
X1450244Y1003358D01*
X1446912Y1005024D02*
X1446079Y1005857D01*
Y1007523D01*
X1446912Y1008356D01*
X1447745D01*
X1448578Y1007523D01*
Y1006690D01*
Y1007523D01*
X1449411Y1008356D01*
X1450244D01*
X1451077Y1007523D01*
Y1005857D01*
X1450244Y1005024D01*
X874835Y965499D02*
Y960501D01*
Y963000D01*
X878167D01*
Y965499D01*
Y960501D01*
X879833Y964666D02*
X880666Y965499D01*
X882332D01*
X883165Y964666D01*
Y963833D01*
X882332Y963000D01*
X881499D01*
X882332D01*
X883165Y962167D01*
Y961334D01*
X882332Y960501D01*
X880666D01*
X879833Y961334D01*
X884197Y942499D02*
Y937501D01*
Y940000D01*
X887529D01*
Y942499D01*
Y937501D01*
X891694D02*
Y942499D01*
X889195Y940000D01*
X892527D01*
D12*
X1378008Y1003402D02*
G03*
X1378008Y1003402I-762J0D01*
G01*
X1069469Y887633D02*
G03*
X1069469Y887633I-1250J0D01*
G01*
D13*
X1082802Y958088D02*
Y976630D01*
X1047242Y958088D02*
X1082802D01*
X1047242Y976630D02*
X1082802D01*
X1047242Y958088D02*
Y976630D01*
X1204780Y875106D02*
Y893648D01*
X1169220Y875106D02*
X1204780D01*
X1169220Y893648D02*
X1204780D01*
X1169220Y875106D02*
Y893648D01*
X1166780Y875356D02*
Y893898D01*
X1131220Y875356D02*
X1166780D01*
X1131220Y893898D02*
X1166780D01*
X1131220Y875356D02*
Y893898D01*
X982030Y1001606D02*
Y1020148D01*
X946470Y1001606D02*
X982030D01*
X946470Y1020148D02*
X982030D01*
X946470Y1001606D02*
Y1020148D01*
X1452880Y934212D02*
X1471422D01*
Y898652D02*
Y934212D01*
X1452880Y898652D02*
Y934212D01*
Y898652D02*
X1471422D01*
X834950Y1020000D02*
X923180D01*
X834950Y952980D02*
X923180D01*
Y1020000D01*
X834950Y952980D02*
Y1020000D01*
X1091212Y875368D02*
Y891878D01*
Y875368D02*
X1128296D01*
X1091212Y891878D02*
X1128296D01*
Y875368D02*
Y891878D01*
X1427988Y986536D02*
Y1021842D01*
X1470406Y986536D02*
Y1021842D01*
X1427988D02*
X1470406D01*
X1427988Y986536D02*
X1470406D01*
X1398192Y924380D02*
Y939620D01*
X1369490D02*
X1398192D01*
X1369490Y924380D02*
X1398192D01*
X1369490D02*
Y939620D01*
X1083062Y1021842D02*
X1207268D01*
Y890778D02*
Y1021842D01*
X1083062Y890778D02*
Y1021842D01*
Y890778D02*
X1207268D01*
D14*
X1366000Y939000D02*
Y1005802D01*
X1208000D02*
X1366000D01*
X1208000Y874230D02*
Y1005802D01*
Y874230D02*
X1366000D01*
Y939000D01*
X1444280Y986620D02*
X1472220D01*
Y971380D02*
Y986620D01*
X1444280Y971380D02*
X1472220D01*
X1444280D02*
Y986620D01*
X835052Y883980D02*
Y951000D01*
X945542Y883980D02*
Y951000D01*
X835052Y883980D02*
X945542D01*
X835052Y951000D02*
X945542D01*
X1531180Y954000D02*
Y1021020D01*
X1470220Y954000D02*
Y1021020D01*
X1531180D01*
X1470220Y954000D02*
X1531180D01*
X1532180Y875400D02*
Y942420D01*
X1471220Y875400D02*
Y942420D01*
X1532180D01*
X1471220Y875400D02*
X1532180D01*
X1452148Y876140D02*
Y921606D01*
X1368582D02*
X1452148D01*
X1368582Y876140D02*
Y921606D01*
Y876140D02*
X1452148D01*
X1267968Y1006856D02*
Y1022350D01*
X1243018D02*
X1267968D01*
X1243018Y1006856D02*
X1267968D01*
X1243018D02*
Y1022350D01*
X948331Y959007D02*
X1083459D01*
X948331Y874171D02*
X1083459D01*
X948331D02*
Y959007D01*
X1083459Y874171D02*
Y959007D01*
D15*
X1403154Y987908D02*
Y1019658D01*
X1371150Y987908D02*
Y1019658D01*
X1403154D01*
X1371150Y987908D02*
X1403154D01*
D16*
X1371903Y931873D02*
D03*
M02*
