G04*
G04 #@! TF.GenerationSoftware,Altium Limited,Altium Designer,22.6.1 (34)*
G04*
G04 Layer_Color=32896*
%FSLAX44Y44*%
%MOMM*%
G71*
G04*
G04 #@! TF.SameCoordinates,33BF7DE0-2247-4683-9E98-F91A82CD5A39*
G04*
G04*
G04 #@! TF.FilePolarity,Positive*
G04*
G01*
G75*
%ADD10C,0.2500*%
%ADD11C,0.2540*%
%ADD12C,0.1000*%
%ADD13C,0.2000*%
%ADD14C,0.0500*%
%ADD87R,1.7750X0.5750*%
D10*
X1366250Y973850D02*
G03*
X1366250Y973850I-1250J0D01*
G01*
X1110950Y985750D02*
G03*
X1110950Y985750I-1250J0D01*
G01*
X1337505Y887488D02*
G03*
X1337505Y887488I-1250J0D01*
G01*
X979750Y883500D02*
G03*
X979750Y883500I-1250J0D01*
G01*
D11*
X1332490Y920331D02*
X1340820D01*
X1342486Y918664D01*
Y915332D01*
X1340820Y913666D01*
X1332490D01*
Y903669D02*
X1334156Y907001D01*
X1337488Y910334D01*
X1340820D01*
X1342486Y908668D01*
Y905335D01*
X1340820Y903669D01*
X1339154D01*
X1337488Y905335D01*
Y910334D01*
X1191554Y929883D02*
Y942578D01*
X1194093Y945117D01*
X1199172D01*
X1201711Y942578D01*
Y929883D01*
X1206789Y932422D02*
X1209328Y929883D01*
X1214407D01*
X1216946Y932422D01*
Y934961D01*
X1214407Y937500D01*
X1211868D01*
X1214407D01*
X1216946Y940039D01*
Y942578D01*
X1214407Y945117D01*
X1209328D01*
X1206789Y942578D01*
X981919Y918002D02*
Y926332D01*
X983586Y927998D01*
X986918D01*
X988584Y926332D01*
Y918002D01*
X998581Y927998D02*
X991916D01*
X998581Y921334D01*
Y919668D01*
X996915Y918002D01*
X993582D01*
X991916Y919668D01*
D12*
X1075453Y916467D02*
G03*
X1075453Y916467I-100J0D01*
G01*
X1386830Y997298D02*
Y988968D01*
X1385164Y987301D01*
X1381832D01*
X1380166Y988968D01*
Y997298D01*
X1370169D02*
X1376834D01*
Y992300D01*
X1373501Y993966D01*
X1371835D01*
X1370169Y992300D01*
Y988968D01*
X1371835Y987301D01*
X1375168D01*
X1376834Y988968D01*
X1077418Y987001D02*
X1080750Y991999D01*
Y987001D02*
X1077418Y991999D01*
X1082416D02*
X1084082D01*
X1083249D01*
Y987001D01*
X1082416Y987834D01*
X1084083Y894334D02*
Y897666D01*
X1084916Y898499D01*
X1086582D01*
X1087415Y897666D01*
Y894334D01*
X1086582Y893501D01*
X1084916D01*
X1085749Y895167D02*
X1084083Y893501D01*
X1084916D02*
X1084083Y894334D01*
X1079085Y893501D02*
X1082417D01*
X1079085Y896833D01*
Y897666D01*
X1079918Y898499D01*
X1081584D01*
X1082417Y897666D01*
D13*
X941126Y927000D02*
X956620D01*
Y902050D02*
Y927000D01*
X941126Y902050D02*
Y927000D01*
Y902050D02*
X956620D01*
X1160780Y1003102D02*
Y1021644D01*
X1125220D02*
X1160780D01*
X1125220Y1003102D02*
X1160780D01*
X1125220D02*
Y1021644D01*
X1336030Y962100D02*
Y1021860D01*
Y962100D02*
X1420375D01*
Y1021860D01*
X1336030D02*
X1420375D01*
X1101940Y1004040D02*
X1297520D01*
X1101940Y873230D02*
X1297520D01*
X1101940D02*
Y1004040D01*
X1297520Y873230D02*
Y1004040D01*
X1063720Y935606D02*
Y954148D01*
Y935606D02*
X1099280D01*
X1063720Y954148D02*
X1099280D01*
Y935606D02*
Y954148D01*
X1004602Y994530D02*
X1023144D01*
X1004602Y958970D02*
Y994530D01*
X1023144Y958970D02*
Y994530D01*
X1004602Y958970D02*
X1023144D01*
X1314602Y980970D02*
X1333144D01*
Y1016530D01*
X1314602Y980970D02*
Y1016530D01*
X1333144D01*
X1040602Y910530D02*
X1059144D01*
X1040602Y874970D02*
Y910530D01*
X1059144Y874970D02*
Y910530D01*
X1040602Y874970D02*
X1059144D01*
X1257450Y1006380D02*
Y1021620D01*
X1232050Y1006380D02*
X1257450D01*
X1232050D02*
Y1021620D01*
X1257450D01*
X890062Y930672D02*
Y972074D01*
X914700D01*
Y930672D02*
Y972074D01*
X890062Y930672D02*
X914700D01*
X1098800Y1005380D02*
Y1020620D01*
X1124200D01*
Y1005380D02*
Y1020620D01*
X1098800Y1005380D02*
X1124200D01*
X1101780Y873750D02*
Y921146D01*
X1064750Y873750D02*
Y921146D01*
Y873750D02*
X1101780D01*
X1064750Y921146D02*
X1101780D01*
X1423250Y876687D02*
X1440750D01*
X1423250D02*
Y907534D01*
X1440750Y876687D02*
Y907534D01*
X1423250D02*
X1440750D01*
X1444396Y876796D02*
Y901688D01*
Y876796D02*
X1457604D01*
Y901688D01*
X1444396D02*
X1457604D01*
X1073280Y920380D02*
X1101220D01*
Y935620D01*
X1073280D02*
X1101220D01*
X1073280Y920380D02*
Y935620D01*
X1037250Y912750D02*
Y925500D01*
Y912750D02*
X1060500D01*
Y925500D01*
X1037250D02*
X1060500D01*
X1061954Y954956D02*
Y1024298D01*
X1099800D01*
Y954956D02*
Y1024298D01*
X1061954Y954956D02*
X1099800D01*
X846500Y940250D02*
Y963500D01*
X859250D01*
Y940250D02*
Y963500D01*
X846500Y940250D02*
X859250D01*
X1168750Y1008000D02*
X1192000D01*
X1168750D02*
Y1020750D01*
X1192000D01*
Y1008000D02*
Y1020750D01*
X1322500Y959250D02*
Y982500D01*
X1335250D01*
Y959250D02*
Y982500D01*
X1322500Y959250D02*
X1335250D01*
X1023250Y1008750D02*
Y1021500D01*
Y1008750D02*
X1046500D01*
Y1021500D01*
X1023250D02*
X1046500D01*
X1030300Y996828D02*
X1054938D01*
X1030300Y955426D02*
Y996828D01*
Y955426D02*
X1054938D01*
Y996828D01*
X864300Y972078D02*
X888938D01*
X864300Y930676D02*
Y972078D01*
Y930676D02*
X888938D01*
Y972078D01*
X1307380Y958050D02*
Y983450D01*
Y958050D02*
X1322620D01*
Y983450D01*
X1307380D02*
X1322620D01*
X949450Y876126D02*
Y891620D01*
X924500Y876126D02*
X949450D01*
X924500Y891620D02*
X949450D01*
X924500Y876126D02*
Y891620D01*
X1004950Y937126D02*
Y952620D01*
X980000Y937126D02*
X1004950D01*
X980000Y952620D02*
X1004950D01*
X980000Y937126D02*
Y952620D01*
X955051Y937380D02*
Y952874D01*
X980001D01*
X955051Y937380D02*
X980001D01*
Y952874D01*
X1419560Y872988D02*
Y947830D01*
X1297894D02*
X1419560D01*
X1297894Y872988D02*
X1419560D01*
X1297894D02*
Y947830D01*
X954250Y875750D02*
Y935922D01*
X1036910Y875750D02*
Y935922D01*
X954250Y875750D02*
X1036910D01*
X954250Y935922D02*
X1036910D01*
D14*
X876627Y953602D02*
X877127Y954101D01*
X878126D01*
X878626Y953602D01*
Y951602D01*
X878126Y951103D01*
X877127D01*
X876627Y951602D01*
X875627D02*
X875127Y951103D01*
X874128D01*
X873628Y951602D01*
Y953602D01*
X874128Y954101D01*
X875127D01*
X875627Y953602D01*
Y953102D01*
X875127Y952602D01*
X873628D01*
D87*
X1432125Y904659D02*
D03*
M02*
