G04*
G04 #@! TF.GenerationSoftware,Altium Limited,Altium Designer,22.6.1 (34)*
G04*
G04 Layer_Physical_Order=1*
G04 Layer_Color=255*
%FSLAX44Y44*%
%MOMM*%
G71*
G04*
G04 #@! TF.SameCoordinates,33BF7DE0-2247-4683-9E98-F91A82CD5A39*
G04*
G04*
G04 #@! TF.FilePolarity,Positive*
G04*
G01*
G75*
%ADD11C,0.2540*%
%ADD16R,1.3000X2.4000*%
%ADD17R,1.1000X1.1000*%
%ADD18R,1.1000X1.1000*%
%ADD19R,2.4000X4.0000*%
%ADD20R,0.6500X0.6000*%
%ADD21R,1.6000X0.7500*%
%ADD22R,0.5000X0.5000*%
%ADD23R,0.5000X0.5000*%
%ADD24R,1.2000X0.8000*%
%ADD25R,0.6000X0.6000*%
%ADD26R,0.6000X0.6000*%
%ADD27R,0.8000X1.2000*%
%ADD28R,0.8000X0.9000*%
%ADD29R,1.0000X1.0000*%
%ADD30O,1.9000X0.7000*%
%ADD31R,0.3000X0.8000*%
%ADD32R,1.9500X0.6500*%
%ADD58C,0.2032*%
%ADD59R,2.1000X2.4000*%
%ADD60O,2.1000X2.4000*%
%ADD61C,1.1000*%
%ADD62C,4.0000*%
%ADD63C,0.5000*%
%ADD64C,0.7000*%
G36*
X1532500Y873555D02*
X1532499Y873553D01*
X834520D01*
X833254Y874803D01*
X833750Y1022500D01*
X1532500D01*
Y873555D01*
D02*
G37*
%LPC*%
G36*
X1327650Y1020100D02*
X1326380Y1020100D01*
X1316900D01*
Y1018436D01*
X1288000D01*
X1288000Y1018436D01*
X1286685Y1018174D01*
X1285570Y1017430D01*
X1285570Y1017430D01*
X1281741Y1013600D01*
X1281085D01*
X1279394Y1012900D01*
X1278100Y1011606D01*
X1277400Y1009915D01*
Y1008085D01*
X1278100Y1006394D01*
X1279394Y1005100D01*
X1281085Y1004400D01*
X1282915D01*
X1284606Y1005100D01*
X1285900Y1006394D01*
X1286600Y1008085D01*
Y1008741D01*
X1289423Y1011564D01*
X1316900D01*
Y1009900D01*
X1326380D01*
X1327053Y1009900D01*
X1327918Y1008969D01*
X1320729Y1001780D01*
X1303844D01*
X1302529Y1001518D01*
X1301414Y1000773D01*
X1301414Y1000773D01*
X1298405Y997764D01*
X1257604D01*
X1257604Y997764D01*
X1256289Y997503D01*
X1255308Y996847D01*
X1254498Y997833D01*
X1259504Y1002839D01*
X1265516D01*
X1265823Y1002900D01*
X1274600D01*
Y1019100D01*
X1262400D01*
Y1009193D01*
X1258188D01*
X1256972Y1008951D01*
X1255942Y1008262D01*
X1253353Y1005674D01*
X1252180Y1006160D01*
Y1009730D01*
X1246910D01*
Y1002460D01*
X1248480D01*
X1248966Y1001287D01*
X1218606Y970927D01*
X1215993D01*
X1214422Y972497D01*
X1212364Y973350D01*
X1210136D01*
X1208078Y972497D01*
X1206503Y970922D01*
X1205650Y968864D01*
Y966636D01*
X1206503Y964578D01*
X1208078Y963003D01*
X1210136Y962150D01*
X1210369D01*
X1210900Y961100D01*
X1210900Y960880D01*
Y916900D01*
X1238457D01*
X1239100Y916900D01*
X1240048Y916124D01*
X1240350Y915394D01*
X1241644Y914100D01*
X1242835Y913607D01*
Y912232D01*
X1242008Y911890D01*
X1240714Y910596D01*
X1240014Y908905D01*
Y907075D01*
X1240714Y905384D01*
X1242008Y904090D01*
X1243699Y903390D01*
X1244354D01*
X1248984Y898760D01*
X1250099Y898016D01*
X1251414Y897754D01*
X1251414Y897754D01*
X1315560D01*
X1315560Y897754D01*
X1316875Y898016D01*
X1317990Y898760D01*
X1318650Y899420D01*
X1319971D01*
X1321662Y900120D01*
X1322956Y901414D01*
X1323241Y902104D01*
X1324739Y902401D01*
X1329556Y897585D01*
Y888633D01*
X1329556Y888633D01*
X1329818Y887318D01*
X1330562Y886203D01*
X1336006Y880760D01*
X1337120Y880015D01*
X1338435Y879753D01*
X1338435Y879753D01*
X1448689D01*
X1448690Y879753D01*
X1450004Y880015D01*
X1451119Y880760D01*
X1455180Y884820D01*
X1455925Y885935D01*
X1456186Y887250D01*
X1456186Y887250D01*
Y900650D01*
X1460564D01*
Y898350D01*
X1458400D01*
Y888782D01*
X1458400Y887831D01*
X1458400Y886880D01*
Y877312D01*
X1468600D01*
Y886880D01*
X1468600Y887831D01*
X1468600Y888782D01*
Y898350D01*
X1467436D01*
Y900650D01*
X1471350D01*
Y915850D01*
X1460613D01*
X1459935Y917120D01*
X1459955Y917150D01*
X1471350D01*
Y929741D01*
X1473810Y932200D01*
X1473810Y932201D01*
X1474554Y933315D01*
X1474816Y934630D01*
Y950350D01*
X1475050Y950584D01*
X1475050Y950584D01*
X1475795Y951698D01*
X1476056Y953013D01*
Y973900D01*
X1500600D01*
Y981771D01*
X1501870Y982024D01*
X1502648Y980146D01*
X1504668Y977514D01*
X1507300Y975494D01*
X1510365Y974224D01*
X1513654Y973791D01*
X1516943Y974224D01*
X1520008Y975494D01*
X1522640Y977514D01*
X1524660Y980146D01*
X1525930Y983211D01*
X1526363Y986500D01*
Y989500D01*
X1525930Y992789D01*
X1524660Y995854D01*
X1522640Y998486D01*
X1520008Y1000506D01*
X1516943Y1001776D01*
X1513654Y1002209D01*
X1510365Y1001776D01*
X1507300Y1000506D01*
X1504668Y998486D01*
X1502648Y995854D01*
X1501870Y993976D01*
X1500600Y994229D01*
Y1002100D01*
X1475400D01*
Y995506D01*
X1474130Y994980D01*
X1469100Y1000010D01*
Y1010350D01*
X1454900D01*
Y1005619D01*
X1453727Y1005133D01*
X1446660Y1012200D01*
X1445545Y1012944D01*
X1445100Y1013033D01*
Y1019100D01*
X1430900D01*
Y1004900D01*
X1444241D01*
X1445691Y1003450D01*
X1445704Y1003145D01*
X1444714Y1002040D01*
X1444367Y1002040D01*
X1439270D01*
Y995770D01*
X1445540D01*
Y1000794D01*
X1445540Y1001214D01*
X1446645Y1002204D01*
X1446950Y1002191D01*
X1449564Y999577D01*
Y984100D01*
X1447900D01*
Y973900D01*
X1458100D01*
Y973900D01*
X1458400D01*
Y973900D01*
X1460314D01*
Y970819D01*
X1460100Y970606D01*
X1459400Y968915D01*
Y967085D01*
X1460100Y965394D01*
X1461394Y964100D01*
X1463085Y963400D01*
X1464915D01*
X1466606Y964100D01*
X1467900Y965394D01*
X1467914Y965429D01*
X1469184Y965176D01*
Y954436D01*
X1468950Y954203D01*
X1468206Y953088D01*
X1467944Y951773D01*
X1467944Y951773D01*
Y936053D01*
X1464241Y932350D01*
X1457400D01*
X1456874Y933620D01*
X1459166Y935912D01*
X1461585Y939532D01*
X1463251Y943554D01*
X1464100Y947823D01*
Y952177D01*
X1463251Y956446D01*
X1461585Y960468D01*
X1459166Y964088D01*
X1456088Y967166D01*
X1452468Y969585D01*
X1448447Y971251D01*
X1444177Y972100D01*
X1439823D01*
X1435554Y971251D01*
X1431532Y969585D01*
X1427912Y967166D01*
X1424834Y964088D01*
X1422415Y960468D01*
X1420750Y956446D01*
X1419900Y952177D01*
Y947823D01*
X1420750Y943554D01*
X1422415Y939532D01*
X1424834Y935912D01*
X1427912Y932834D01*
X1431532Y930415D01*
X1435554Y928749D01*
X1439823Y927900D01*
X1444177D01*
X1448447Y928749D01*
X1452468Y930415D01*
X1454880Y932027D01*
X1456150Y931348D01*
Y924259D01*
X1450320Y918430D01*
X1449576Y917315D01*
X1449314Y916000D01*
X1449314Y916000D01*
Y913100D01*
X1432400D01*
Y886626D01*
X1413799D01*
X1413273Y887896D01*
X1414023Y888645D01*
X1414679Y890230D01*
X1404821D01*
X1405477Y888645D01*
X1406227Y887896D01*
X1405701Y886626D01*
X1400049D01*
X1399523Y887896D01*
X1400023Y888395D01*
X1400679Y889980D01*
X1395750D01*
Y892520D01*
X1400679D01*
X1400023Y894105D01*
X1398605Y895523D01*
X1398280Y895657D01*
Y897032D01*
X1399355Y897477D01*
X1400773Y898895D01*
X1401429Y900480D01*
X1391571D01*
X1392227Y898895D01*
X1393645Y897477D01*
X1393970Y897343D01*
Y895968D01*
X1392895Y895523D01*
X1392058Y894686D01*
X1390040D01*
Y897730D01*
X1381000D01*
X1371960D01*
Y886626D01*
X1348571D01*
X1348045Y887896D01*
X1348576Y888426D01*
X1349276Y890117D01*
Y890773D01*
X1367934Y909430D01*
X1367934Y909430D01*
X1368678Y910545D01*
X1368940Y911860D01*
X1368940Y911860D01*
Y914386D01*
X1370210Y914912D01*
X1370895Y914227D01*
X1371960Y913540D01*
X1371960D01*
X1371960Y913540D01*
Y900270D01*
X1381000D01*
X1390040D01*
Y912378D01*
X1390480Y913051D01*
Y918500D01*
X1393020D01*
Y913571D01*
X1394605Y914227D01*
X1395420Y915043D01*
X1396250Y915516D01*
X1397080Y915043D01*
X1397895Y914227D01*
X1399480Y913571D01*
Y918500D01*
X1402020D01*
Y913571D01*
X1403605Y914227D01*
X1404420Y915043D01*
X1405250Y915516D01*
X1406080Y915043D01*
X1406293Y914830D01*
X1406765Y914000D01*
X1406293Y913170D01*
X1405477Y912355D01*
X1404821Y910770D01*
X1414679D01*
X1414023Y912355D01*
X1413207Y913170D01*
X1412735Y914000D01*
X1413207Y914830D01*
X1414023Y915645D01*
X1414790Y917497D01*
Y917542D01*
X1416060Y918584D01*
X1416162Y918564D01*
X1429681D01*
X1430144Y918100D01*
X1431835Y917400D01*
X1433665D01*
X1435356Y918100D01*
X1436650Y919394D01*
X1437350Y921085D01*
Y922915D01*
X1436650Y924606D01*
X1435356Y925900D01*
X1433665Y926600D01*
X1431835D01*
X1430144Y925900D01*
X1429681Y925436D01*
X1424178D01*
X1423994Y925515D01*
X1423757Y926706D01*
X1424106Y926850D01*
X1425400Y928144D01*
X1426100Y929835D01*
Y931665D01*
X1425400Y933356D01*
X1424106Y934650D01*
X1423100Y935066D01*
Y936100D01*
X1412900D01*
X1412900Y936100D01*
X1412262D01*
Y936100D01*
X1411630Y936100D01*
X1402062D01*
Y935726D01*
X1400792Y935048D01*
X1400601Y935175D01*
X1399286Y935437D01*
X1399286Y935437D01*
X1396100D01*
Y938100D01*
X1388900D01*
Y925900D01*
X1389806D01*
X1390070Y925505D01*
X1391110Y924810D01*
X1391124Y924717D01*
X1390748Y923540D01*
X1388895Y922773D01*
X1388080Y921957D01*
X1387250Y921485D01*
X1386420Y921957D01*
X1385605Y922773D01*
X1384020Y923429D01*
Y918500D01*
X1381480D01*
Y923429D01*
X1379895Y922773D01*
X1379080Y921957D01*
X1378250Y921485D01*
X1377420Y921957D01*
X1376605Y922773D01*
X1375020Y923429D01*
Y918500D01*
X1372480D01*
Y923429D01*
X1370895Y922773D01*
X1370210Y922088D01*
X1368940Y922614D01*
Y924481D01*
X1373023Y928565D01*
X1375900D01*
Y925900D01*
X1383100D01*
Y938100D01*
X1375900D01*
Y935437D01*
X1371600D01*
X1370285Y935175D01*
X1369170Y934430D01*
X1369170Y934430D01*
X1364273Y929533D01*
X1363100Y930019D01*
Y961100D01*
X1334900D01*
Y956269D01*
X1333630Y956017D01*
X1333273Y956879D01*
X1331855Y958297D01*
X1330270Y958953D01*
Y954024D01*
Y949095D01*
X1331855Y949751D01*
X1333273Y951169D01*
X1333630Y952031D01*
X1334900Y951779D01*
Y916900D01*
X1362068D01*
Y913283D01*
X1344417Y895632D01*
X1343761D01*
X1342070Y894932D01*
X1340776Y893638D01*
X1340076Y891947D01*
Y890117D01*
X1340776Y888426D01*
X1340936Y888267D01*
X1340448Y886981D01*
X1339608Y886876D01*
X1336428Y890056D01*
Y899008D01*
X1336167Y900323D01*
X1335422Y901438D01*
X1335422Y901438D01*
X1297852Y939008D01*
X1296737Y939753D01*
X1295508Y939997D01*
X1294606Y940900D01*
X1292915Y941600D01*
X1291085D01*
X1289394Y940900D01*
X1288100Y939606D01*
X1287400Y937915D01*
Y936085D01*
X1288100Y934394D01*
X1289394Y933100D01*
X1291085Y932400D01*
X1292915D01*
X1294206Y932935D01*
X1317437Y909703D01*
X1317139Y908205D01*
X1316451Y907920D01*
X1315157Y906626D01*
X1314463Y904952D01*
X1314137Y904626D01*
X1288069D01*
X1287651Y905896D01*
X1288650Y906894D01*
X1289350Y908585D01*
Y910415D01*
X1288650Y912106D01*
X1287356Y913400D01*
X1285665Y914100D01*
X1284302D01*
X1283415Y914815D01*
X1283186Y915206D01*
Y946393D01*
X1297777Y960984D01*
X1300676D01*
X1302085Y960400D01*
X1303915D01*
X1305606Y961100D01*
X1306900Y962394D01*
X1307600Y964085D01*
Y965915D01*
X1307315Y966604D01*
X1308163Y967874D01*
X1361517D01*
X1373150Y956241D01*
Y948900D01*
X1389350D01*
Y961100D01*
X1378009D01*
X1372919Y966190D01*
X1373445Y967460D01*
X1379980D01*
Y972730D01*
X1372710D01*
Y968195D01*
X1371440Y967669D01*
X1365370Y973740D01*
X1364255Y974484D01*
X1362940Y974746D01*
X1362940Y974746D01*
X1296060D01*
X1296060Y974746D01*
X1294745Y974484D01*
X1293630Y973740D01*
X1281795Y961905D01*
X1280600Y962505D01*
Y963915D01*
X1279900Y965606D01*
X1278606Y966900D01*
X1276915Y967600D01*
X1275085D01*
X1273394Y966900D01*
X1272100Y965606D01*
X1271400Y963915D01*
Y963259D01*
X1241820Y933680D01*
X1241076Y932565D01*
X1240814Y931250D01*
X1240814Y931250D01*
Y921712D01*
X1240782Y921649D01*
X1240370Y921324D01*
X1239100Y921939D01*
Y961100D01*
X1230895D01*
X1230409Y962273D01*
X1259028Y990892D01*
X1289999D01*
X1297657Y983234D01*
X1297657Y983234D01*
X1298771Y982489D01*
X1300086Y982228D01*
X1380429D01*
X1380430Y982228D01*
X1381745Y982489D01*
X1382859Y983234D01*
X1389440Y989815D01*
X1390710Y989289D01*
Y988210D01*
X1395230D01*
Y993750D01*
Y999290D01*
X1390936D01*
Y1008650D01*
X1392850D01*
Y1018850D01*
X1382150D01*
Y1008650D01*
X1384064D01*
Y998985D01*
X1382850Y998850D01*
Y998850D01*
X1381436D01*
Y1003000D01*
X1381436Y1003000D01*
X1381174Y1004315D01*
X1380430Y1005430D01*
X1380430Y1005430D01*
X1369680Y1016180D01*
X1368565Y1016925D01*
X1367250Y1017186D01*
X1367250Y1017186D01*
X1363850D01*
Y1018850D01*
X1353650D01*
Y1018850D01*
X1353100D01*
Y1018850D01*
X1342900D01*
Y1013509D01*
X1339074Y1009683D01*
X1338962Y1009630D01*
X1337850Y1010255D01*
X1337850Y1011023D01*
Y1020100D01*
X1327650Y1020100D01*
D02*
G37*
G36*
X1190730Y1019540D02*
X1179710D01*
Y1018341D01*
X1178440Y1017815D01*
X1177856Y1018400D01*
X1176165Y1019100D01*
X1174335D01*
X1173150Y1018609D01*
X1136924D01*
X1135708Y1018367D01*
X1135254Y1018063D01*
X1135165Y1018100D01*
X1133335D01*
X1131644Y1017400D01*
X1130350Y1016106D01*
X1129650Y1014415D01*
Y1012585D01*
X1129844Y1012117D01*
X1129138Y1011061D01*
X1123182D01*
X1121350Y1012893D01*
Y1013915D01*
X1120650Y1015606D01*
X1119356Y1016900D01*
X1117665Y1017600D01*
X1115835D01*
X1114144Y1016900D01*
X1112850Y1015606D01*
X1112150Y1013915D01*
Y1012085D01*
X1112850Y1010394D01*
X1114144Y1009100D01*
X1115304Y1008620D01*
X1115051Y1007350D01*
X1113585D01*
X1111894Y1006650D01*
X1110620Y1005375D01*
X1110508Y1005378D01*
X1109350Y1005656D01*
Y1006400D01*
X1085650D01*
Y995700D01*
X1109350D01*
Y999844D01*
X1110508Y1000122D01*
X1110620Y1000125D01*
X1111894Y998850D01*
X1113585Y998150D01*
X1115415D01*
X1117106Y998850D01*
X1117828Y999573D01*
X1141645D01*
X1142861Y999815D01*
X1143892Y1000503D01*
X1144380Y1000992D01*
X1145650Y1000465D01*
Y999835D01*
X1146350Y998144D01*
X1147064Y997431D01*
Y986335D01*
X1130570Y969842D01*
X1129826Y968727D01*
X1129564Y967412D01*
X1129564Y967412D01*
Y960341D01*
X1128294Y959815D01*
X1122850Y965259D01*
Y965915D01*
X1122150Y967606D01*
X1120856Y968900D01*
X1119165Y969600D01*
X1117335D01*
X1115644Y968900D01*
X1114350Y967606D01*
X1113650Y965915D01*
Y964085D01*
X1114350Y962394D01*
X1115644Y961100D01*
X1117335Y960400D01*
X1117991D01*
X1123085Y955306D01*
Y938367D01*
X1122621Y937904D01*
X1121921Y936213D01*
Y934383D01*
X1122621Y932692D01*
X1123915Y931398D01*
X1125606Y930698D01*
X1127436D01*
X1129127Y931398D01*
X1130421Y932692D01*
X1131121Y934383D01*
Y936213D01*
X1130421Y937904D01*
X1129957Y938367D01*
Y944657D01*
X1131227Y945505D01*
X1132085Y945150D01*
X1133915D01*
X1135606Y945850D01*
X1136900Y947144D01*
X1137600Y948835D01*
Y950665D01*
X1136900Y952356D01*
X1136436Y952819D01*
Y965989D01*
X1152930Y982483D01*
X1152930Y982483D01*
X1153674Y983597D01*
X1153936Y984912D01*
X1153936Y984912D01*
Y997931D01*
X1154150Y998144D01*
X1154850Y999835D01*
Y1001665D01*
X1154586Y1002303D01*
X1155434Y1003573D01*
X1159684D01*
X1159900Y1003357D01*
Y1002335D01*
X1160600Y1000644D01*
X1161894Y999350D01*
X1163585Y998650D01*
X1165415D01*
X1165883Y998844D01*
X1166939Y998138D01*
Y994469D01*
X1139660Y967190D01*
X1138971Y966159D01*
X1138729Y964943D01*
Y959824D01*
X1138971Y958608D01*
X1139660Y957578D01*
X1141150Y956087D01*
Y954585D01*
X1141850Y952894D01*
X1143144Y951600D01*
X1144835Y950900D01*
X1146665D01*
X1148356Y951600D01*
X1149650Y952894D01*
X1150350Y954585D01*
Y956415D01*
X1149650Y958106D01*
X1148356Y959400D01*
X1146665Y960100D01*
X1146124D01*
X1145083Y961140D01*
Y963627D01*
X1149940Y968484D01*
X1151210Y967958D01*
Y967247D01*
X1151977Y965395D01*
X1153395Y963977D01*
X1154980Y963321D01*
Y968250D01*
X1156250D01*
Y969520D01*
X1161179D01*
X1160523Y971105D01*
X1159105Y972523D01*
X1157253Y973290D01*
X1156542D01*
X1156016Y974560D01*
X1172363Y990907D01*
X1173051Y991937D01*
X1173293Y993153D01*
Y1005576D01*
X1173051Y1006792D01*
X1172363Y1007823D01*
X1169103Y1011082D01*
X1169589Y1012255D01*
X1171201D01*
X1171350Y1011894D01*
X1172644Y1010600D01*
X1174335Y1009900D01*
X1176165D01*
X1177856Y1010600D01*
X1178440Y1011185D01*
X1179710Y1010659D01*
Y1007960D01*
X1190730D01*
Y1013750D01*
Y1019540D01*
D02*
G37*
G36*
X1013230Y1019290D02*
X1003960D01*
Y1016436D01*
X995207D01*
X994260Y1016248D01*
X993020Y1016762D01*
Y1010750D01*
Y1004738D01*
X995171Y1005630D01*
X996870Y1007329D01*
X997790Y1009549D01*
Y1009564D01*
X1003960D01*
Y1006710D01*
X1013230D01*
Y1013000D01*
Y1019290D01*
D02*
G37*
G36*
X1082040Y1019040D02*
X1078270D01*
Y1015270D01*
X1082040D01*
Y1019040D01*
D02*
G37*
G36*
X1223040Y1020040D02*
X1222313Y1020040D01*
X1219270D01*
Y1015000D01*
X1216730D01*
Y1015000D01*
D01*
Y1020040D01*
X1212960D01*
Y1017436D01*
X1204290D01*
Y1019540D01*
X1193270D01*
Y1013750D01*
Y1007960D01*
X1204290D01*
Y1010564D01*
X1207118D01*
X1207505Y1009294D01*
X1206902Y1008391D01*
X1206640Y1007076D01*
X1206640Y1007076D01*
Y1006772D01*
X1205804Y1005936D01*
X1205036Y1004083D01*
X1203850Y1004285D01*
Y1006400D01*
X1180150D01*
Y995700D01*
X1203850D01*
Y1001877D01*
X1205036Y1002078D01*
X1205804Y1000226D01*
X1207222Y998808D01*
X1208807Y998151D01*
Y1003081D01*
X1211347D01*
Y996951D01*
X1217227Y991070D01*
X1217228Y991070D01*
X1218342Y990325D01*
X1219657Y990064D01*
X1230140D01*
X1230140Y990064D01*
X1231455Y990325D01*
X1232570Y991070D01*
X1243959Y1002460D01*
X1244370D01*
Y1009730D01*
X1239100D01*
Y1007319D01*
X1231668Y999887D01*
X1230591Y1000607D01*
X1231100Y1001835D01*
Y1003489D01*
X1231175Y1003601D01*
X1231436Y1004916D01*
X1231436Y1004916D01*
Y1010400D01*
X1232600D01*
Y1019600D01*
X1224128D01*
X1223040Y1020040D01*
D02*
G37*
G36*
X1068040Y1019040D02*
X1064270D01*
Y1014000D01*
X1061730D01*
Y1019040D01*
X1057960D01*
Y1017258D01*
X1056863Y1017040D01*
X1055749Y1016295D01*
X1055389Y1015936D01*
X1052540D01*
Y1019040D01*
X1045270D01*
Y1012500D01*
Y1005960D01*
X1052540D01*
Y1009064D01*
X1056812D01*
X1056812Y1009064D01*
X1057368Y1009174D01*
X1058199Y1008370D01*
X1058400Y1007872D01*
Y999400D01*
X1059554D01*
Y996980D01*
X1059500Y996936D01*
X1059500Y996936D01*
X1052100D01*
Y999600D01*
X1035900D01*
Y996936D01*
X1024208D01*
X1022893Y996674D01*
X1021778Y995930D01*
X1021778Y995930D01*
X1019995Y994146D01*
X1004654D01*
Y991732D01*
X998584D01*
X997350Y992966D01*
Y993614D01*
X996497Y995672D01*
X994922Y997247D01*
X992864Y998100D01*
X990636D01*
X988578Y997247D01*
X987003Y995672D01*
X986150Y993614D01*
Y991386D01*
X987003Y989328D01*
X988578Y987753D01*
X990636Y986900D01*
X992864D01*
X993453Y987144D01*
X994731Y985866D01*
X994731Y985866D01*
X995846Y985121D01*
X997161Y984860D01*
X997161Y984860D01*
X1004654D01*
Y982446D01*
X1024854D01*
Y989287D01*
X1025631Y990064D01*
X1035900D01*
Y987400D01*
X1052100D01*
Y990064D01*
X1058077D01*
X1059400Y988740D01*
Y987354D01*
X1058344Y986648D01*
X1058270Y986679D01*
Y981750D01*
X1057000D01*
Y980480D01*
X1052071D01*
X1052727Y978895D01*
X1052675Y978588D01*
X1052160Y977666D01*
X1045568D01*
X1045092Y978142D01*
X1044900Y978606D01*
X1043606Y979900D01*
X1041915Y980600D01*
X1040085D01*
X1038394Y979900D01*
X1037100Y978606D01*
X1036400Y976915D01*
Y975085D01*
X1037100Y973394D01*
X1038394Y972100D01*
X1040085Y971400D01*
X1041915D01*
X1042161Y971502D01*
X1042830Y971056D01*
X1044145Y970794D01*
X1049150D01*
Y962400D01*
X1064350D01*
Y976340D01*
X1064893Y976696D01*
X1065650Y976244D01*
Y962400D01*
X1074241D01*
X1079112Y957529D01*
Y955040D01*
X1079112Y955040D01*
X1079373Y953725D01*
X1080118Y952610D01*
X1084908Y947820D01*
X1084908Y947820D01*
X1085650Y947325D01*
Y944900D01*
X1109350D01*
Y955600D01*
X1087048D01*
X1086385Y956330D01*
X1086750Y957600D01*
X1109350D01*
Y968300D01*
X1085650D01*
Y962505D01*
X1084380Y961979D01*
X1080850Y965509D01*
Y977600D01*
X1068641D01*
X1068256Y978870D01*
X1068930Y979320D01*
X1072730Y983121D01*
Y989250D01*
Y994290D01*
X1068960D01*
Y994290D01*
X1068600Y993850D01*
X1066426D01*
Y999400D01*
X1067600D01*
Y1000564D01*
X1072400D01*
Y999400D01*
X1081600D01*
Y1007872D01*
X1082040Y1008960D01*
X1082040Y1009688D01*
Y1012730D01*
X1077000D01*
Y1014000D01*
X1075730D01*
Y1019040D01*
X1071960D01*
Y1017436D01*
X1068040D01*
Y1019040D01*
D02*
G37*
G36*
X954730Y1018790D02*
X947960D01*
Y1013436D01*
X935442D01*
X934605Y1014273D01*
X933020Y1014929D01*
Y1010000D01*
Y1005071D01*
X934605Y1005727D01*
X935442Y1006564D01*
X947960D01*
Y1002710D01*
X954730D01*
Y1010750D01*
Y1018790D01*
D02*
G37*
G36*
X1252180Y1019540D02*
X1246910D01*
Y1012270D01*
X1252180D01*
Y1019540D01*
D02*
G37*
G36*
X1244370D02*
X1239100D01*
Y1012270D01*
X1244370D01*
Y1019540D01*
D02*
G37*
G36*
X990480Y1016762D02*
X988329Y1015871D01*
X986629Y1014171D01*
X985738Y1012020D01*
X990480D01*
Y1016762D01*
D02*
G37*
G36*
X930480Y1014929D02*
X928895Y1014273D01*
X927477Y1012855D01*
X926821Y1011270D01*
X930480D01*
Y1014929D01*
D02*
G37*
G36*
X1412730Y1010040D02*
X1408960D01*
Y1008436D01*
X1407750D01*
X1407750Y1008436D01*
X1406435Y1008175D01*
X1405320Y1007430D01*
X1405320Y1007430D01*
X1400685Y1002795D01*
X1400182Y1002041D01*
X1397770Y999629D01*
Y995020D01*
X1402879D01*
X1405545Y997685D01*
X1405545Y997685D01*
X1406048Y998439D01*
X1407788Y1000179D01*
X1409018Y999816D01*
X1409400Y998872D01*
Y990400D01*
X1418600D01*
Y992039D01*
X1420309D01*
X1420310Y992039D01*
X1421625Y992301D01*
X1422739Y993046D01*
X1423844Y994150D01*
X1425165D01*
X1426856Y994850D01*
X1428150Y996144D01*
X1428850Y997835D01*
Y999665D01*
X1428150Y1001356D01*
X1426856Y1002650D01*
X1425165Y1003350D01*
X1423335D01*
X1421644Y1002650D01*
X1420350Y1001356D01*
X1420310Y1001257D01*
X1419040Y1001510D01*
Y1003730D01*
X1414000D01*
Y1005000D01*
X1412730D01*
Y1010040D01*
D02*
G37*
G36*
X1109350Y1019100D02*
X1085650D01*
Y1008400D01*
X1109350D01*
Y1019100D01*
D02*
G37*
G36*
X1419040Y1010040D02*
X1415270D01*
Y1006270D01*
X1419040D01*
Y1010040D01*
D02*
G37*
G36*
X1025040Y1019290D02*
X1015770D01*
Y1013000D01*
Y1006710D01*
X1025040D01*
Y1009564D01*
X1035460D01*
Y1005960D01*
X1042730D01*
Y1012500D01*
Y1019040D01*
X1035460D01*
Y1016436D01*
X1025040D01*
Y1019290D01*
D02*
G37*
G36*
X930480Y1008730D02*
X926821D01*
X927477Y1007145D01*
X928895Y1005727D01*
X930480Y1005071D01*
Y1008730D01*
D02*
G37*
G36*
X990480Y1009480D02*
X985738D01*
X986629Y1007329D01*
X988329Y1005630D01*
X990480Y1004738D01*
Y1009480D01*
D02*
G37*
G36*
X906401Y1019000D02*
X904399D01*
X902467Y1018482D01*
X900733Y1017482D01*
X899318Y1016067D01*
X898318Y1014333D01*
X897800Y1012401D01*
Y1010399D01*
X898318Y1008466D01*
X899318Y1006733D01*
X900733Y1005319D01*
X902467Y1004318D01*
X904399Y1003800D01*
X906401D01*
X908334Y1004318D01*
X910067Y1005319D01*
X911481Y1006733D01*
X912482Y1008466D01*
X913000Y1010399D01*
Y1012401D01*
X912482Y1014333D01*
X911481Y1016067D01*
X910067Y1017482D01*
X908334Y1018482D01*
X906401Y1019000D01*
D02*
G37*
G36*
X881401D02*
X879399D01*
X877467Y1018482D01*
X875733Y1017482D01*
X874318Y1016067D01*
X873318Y1014333D01*
X872800Y1012401D01*
Y1010399D01*
X873318Y1008466D01*
X874318Y1006733D01*
X875733Y1005319D01*
X877467Y1004318D01*
X879399Y1003800D01*
X881401D01*
X883334Y1004318D01*
X885067Y1005319D01*
X886481Y1006733D01*
X887482Y1008466D01*
X888000Y1010399D01*
Y1012401D01*
X887482Y1014333D01*
X886481Y1016067D01*
X885067Y1017482D01*
X883334Y1018482D01*
X881401Y1019000D01*
D02*
G37*
G36*
X856001D02*
X853999D01*
X852066Y1018482D01*
X850333Y1017482D01*
X848919Y1016067D01*
X847918Y1014333D01*
X847400Y1012401D01*
Y1010399D01*
X847918Y1008466D01*
X848919Y1006733D01*
X850333Y1005319D01*
X852066Y1004318D01*
X853999Y1003800D01*
X856001D01*
X857934Y1004318D01*
X859667Y1005319D01*
X861081Y1006733D01*
X862082Y1008466D01*
X862600Y1010399D01*
Y1012401D01*
X862082Y1014333D01*
X861081Y1016067D01*
X859667Y1017482D01*
X857934Y1018482D01*
X856001Y1019000D01*
D02*
G37*
G36*
X1436730Y1002040D02*
X1430460D01*
Y995770D01*
X1436730D01*
Y1002040D01*
D02*
G37*
G36*
X1079040Y994290D02*
X1075270D01*
Y990520D01*
X1079040D01*
Y994290D01*
D02*
G37*
G36*
X852314Y1000485D02*
X850180Y1000204D01*
X847008Y998890D01*
X844284Y996800D01*
X842194Y994076D01*
X840880Y990904D01*
X840432Y987500D01*
Y987270D01*
X852314D01*
Y1000485D01*
D02*
G37*
G36*
X1445540Y993230D02*
X1439270D01*
Y986960D01*
X1445540D01*
Y993230D01*
D02*
G37*
G36*
X964040Y1018790D02*
X963812Y1018790D01*
X957270D01*
Y1010750D01*
Y1002710D01*
X963812D01*
X964040Y1002710D01*
X965128Y1003150D01*
X965310Y1003150D01*
X970814D01*
Y985405D01*
X969544Y985153D01*
X968585Y987468D01*
X966166Y991088D01*
X963088Y994166D01*
X959468Y996585D01*
X955446Y998251D01*
X951177Y999100D01*
X946823D01*
X942554Y998251D01*
X938532Y996585D01*
X934912Y994166D01*
X931834Y991088D01*
X929415Y987468D01*
X927749Y983446D01*
X926900Y979177D01*
Y974823D01*
X927749Y970554D01*
X929415Y966532D01*
X931834Y962912D01*
X934912Y959834D01*
X938532Y957415D01*
X942554Y955749D01*
X946823Y954900D01*
X951177D01*
X955446Y955749D01*
X959468Y957415D01*
X963088Y959834D01*
X966166Y962912D01*
X968585Y966532D01*
X970251Y970554D01*
X971100Y974823D01*
Y979177D01*
X970622Y981577D01*
X971819Y982073D01*
X971820Y982070D01*
X979427Y974463D01*
X978941Y973290D01*
X975460D01*
Y969520D01*
X980500D01*
Y966980D01*
X975460D01*
Y963210D01*
X977064D01*
Y950750D01*
X977064Y950750D01*
X977326Y949435D01*
X978070Y948320D01*
X980732Y945659D01*
X980672Y944796D01*
X979411Y944261D01*
X975330Y948342D01*
X974215Y949087D01*
X972900Y949348D01*
X972900Y949348D01*
X932511D01*
X911133Y970727D01*
X911619Y971900D01*
X918000D01*
Y1000100D01*
X892800D01*
Y991616D01*
X891530Y991363D01*
X890498Y993854D01*
X888478Y996487D01*
X885846Y998506D01*
X882781Y999776D01*
X879492Y1000209D01*
X876203Y999776D01*
X873138Y998506D01*
X870506Y996487D01*
X868486Y993854D01*
X867462Y991382D01*
X866089Y991386D01*
X864974Y994076D01*
X862884Y996800D01*
X860160Y998890D01*
X856988Y1000204D01*
X854854Y1000485D01*
Y986000D01*
Y971515D01*
X856988Y971796D01*
X860160Y973110D01*
X862884Y975200D01*
X864974Y977924D01*
X866089Y980614D01*
X867462Y980618D01*
X868486Y978146D01*
X870506Y975514D01*
X873138Y973494D01*
X876203Y972224D01*
X879492Y971791D01*
X882781Y972224D01*
X885846Y973494D01*
X888478Y975514D01*
X890498Y978146D01*
X891530Y980637D01*
X892800Y980384D01*
Y971900D01*
X900753D01*
X901964Y971600D01*
X902225Y970285D01*
X902970Y969170D01*
X928658Y943483D01*
X928658Y943483D01*
X929773Y942738D01*
X931088Y942476D01*
X931088Y942476D01*
X954926D01*
X955109Y941935D01*
X955137Y941206D01*
X953463Y940087D01*
X952225Y938235D01*
X951790Y936050D01*
X952225Y933865D01*
X953463Y932013D01*
X955315Y930775D01*
X957500Y930340D01*
X969500D01*
X971685Y930775D01*
X973537Y932013D01*
X974775Y933865D01*
X975210Y936050D01*
X974987Y937170D01*
X976157Y937796D01*
X981314Y932639D01*
Y910319D01*
X980850Y909856D01*
X980150Y908165D01*
Y906335D01*
X980850Y904644D01*
X982144Y903350D01*
X983835Y902650D01*
X985665D01*
X987356Y903350D01*
X988650Y904644D01*
X989350Y906335D01*
Y908165D01*
X988650Y909856D01*
X988186Y910319D01*
Y934062D01*
X988186Y934062D01*
X987924Y935377D01*
X987180Y936492D01*
X984635Y939037D01*
X984730Y939344D01*
Y945250D01*
Y951379D01*
X983936Y952173D01*
Y963210D01*
X985540D01*
Y963210D01*
X985900Y963650D01*
X990241D01*
X992320Y961570D01*
X992320Y961570D01*
X993435Y960826D01*
X994750Y960564D01*
X995577D01*
X1004852Y951289D01*
X1005967Y950544D01*
X1007281Y950283D01*
X1007282Y950283D01*
X1014421D01*
X1016445Y948259D01*
X1016445Y948259D01*
X1017560Y947514D01*
X1018874Y947253D01*
X1018875Y947253D01*
X1020460D01*
X1021394Y946318D01*
X1023085Y945618D01*
X1024915D01*
X1026606Y946318D01*
X1027900Y947612D01*
X1028600Y949303D01*
Y950741D01*
X1031930Y954070D01*
X1031930Y954070D01*
X1032674Y955185D01*
X1032936Y956500D01*
X1032936Y956500D01*
Y968750D01*
X1032936Y968750D01*
X1032674Y970065D01*
X1031930Y971180D01*
X1031930Y971180D01*
X1028680Y974430D01*
X1027565Y975174D01*
X1026850Y975317D01*
Y977100D01*
X1017370D01*
X1016650Y977100D01*
X1015380Y977100D01*
X1005900D01*
Y977100D01*
X1004646Y977139D01*
X1004100Y977549D01*
Y977665D01*
X1003400Y979356D01*
X1002106Y980650D01*
X1000415Y981350D01*
X998585D01*
X996894Y980650D01*
X995600Y979356D01*
X994900Y977665D01*
Y975835D01*
X995351Y974747D01*
X995600Y974144D01*
X995513Y973917D01*
X995102Y972853D01*
X995099Y972851D01*
X993845Y972850D01*
X990759D01*
X977686Y985923D01*
Y1003150D01*
X980100D01*
Y1018350D01*
X965128Y1018350D01*
X964040Y1018790D01*
D02*
G37*
G36*
X1079040Y987980D02*
X1075270D01*
Y984210D01*
X1079040D01*
Y987980D01*
D02*
G37*
G36*
X1055730Y986679D02*
X1054145Y986023D01*
X1052727Y984605D01*
X1052071Y983020D01*
X1055730D01*
Y986679D01*
D02*
G37*
G36*
X1203850Y993700D02*
X1180150D01*
Y983000D01*
X1203850D01*
Y993700D01*
D02*
G37*
G36*
X1109350D02*
X1085650D01*
Y983000D01*
X1109350D01*
Y993700D01*
D02*
G37*
G36*
X1436730Y993230D02*
X1430460D01*
Y990819D01*
X1424542Y984902D01*
X1424496Y984832D01*
X1423145Y984273D01*
X1421727Y982855D01*
X1421095Y981329D01*
X1419906Y980140D01*
X1417286D01*
Y982994D01*
X1411086D01*
X1410182Y983754D01*
X1409921Y985069D01*
X1409176Y986183D01*
X1409176Y986184D01*
X1402879Y992480D01*
X1397770D01*
Y987871D01*
X1401474Y984167D01*
X1400988Y982994D01*
X1396206D01*
Y977436D01*
X1389790D01*
Y980540D01*
X1382520D01*
Y974000D01*
Y967460D01*
X1389790D01*
Y970564D01*
X1396206D01*
Y970414D01*
X1405476D01*
Y976704D01*
X1408016D01*
Y970414D01*
X1417286D01*
Y973268D01*
X1421329D01*
X1421329Y973268D01*
X1422644Y973529D01*
X1423759Y974274D01*
X1424606Y975122D01*
X1424730Y975071D01*
Y980000D01*
X1426000D01*
Y981270D01*
X1430929D01*
X1430841Y981482D01*
X1436319Y986960D01*
X1436730D01*
Y993230D01*
D02*
G37*
G36*
X1379980Y980540D02*
X1372710D01*
Y975270D01*
X1379980D01*
Y980540D01*
D02*
G37*
G36*
X1430929Y978730D02*
X1427270D01*
Y975071D01*
X1428855Y975727D01*
X1430273Y977145D01*
X1430929Y978730D01*
D02*
G37*
G36*
X852314Y984730D02*
X840432D01*
Y984500D01*
X840880Y981096D01*
X842194Y977924D01*
X844284Y975200D01*
X847008Y973110D01*
X850180Y971796D01*
X852314Y971515D01*
Y984730D01*
D02*
G37*
G36*
X1203850Y981000D02*
X1180150D01*
Y970300D01*
X1203850D01*
Y981000D01*
D02*
G37*
G36*
X1109350D02*
X1085650D01*
Y970300D01*
X1109350D01*
Y981000D01*
D02*
G37*
G36*
X1161179Y966980D02*
X1157520D01*
Y963321D01*
X1159105Y963977D01*
X1160523Y965395D01*
X1161179Y966980D01*
D02*
G37*
G36*
X1171079Y971686D02*
X1169249D01*
X1167558Y970986D01*
X1166264Y969692D01*
X1165564Y968001D01*
Y966171D01*
X1166264Y964480D01*
X1167558Y963186D01*
X1169249Y962486D01*
X1171079D01*
X1172770Y963186D01*
X1174064Y964480D01*
X1174764Y966171D01*
Y968001D01*
X1174064Y969692D01*
X1172770Y970986D01*
X1171079Y971686D01*
D02*
G37*
G36*
X1203850Y968300D02*
X1180150D01*
Y957600D01*
X1203850D01*
Y968300D01*
D02*
G37*
G36*
X1327730Y958953D02*
X1326145Y958297D01*
X1324727Y956879D01*
X1324071Y955294D01*
X1327730D01*
Y958953D01*
D02*
G37*
G36*
X1514001Y970200D02*
X1511999D01*
X1510067Y969682D01*
X1508333Y968681D01*
X1506918Y967266D01*
X1505918Y965534D01*
X1505400Y963601D01*
Y961599D01*
X1505918Y959667D01*
X1506918Y957934D01*
X1508333Y956518D01*
X1510067Y955518D01*
X1511999Y955000D01*
X1514001D01*
X1515934Y955518D01*
X1517666Y956518D01*
X1519082Y957934D01*
X1520082Y959667D01*
X1520600Y961599D01*
Y963601D01*
X1520082Y965534D01*
X1519082Y967266D01*
X1517666Y968681D01*
X1515934Y969682D01*
X1514001Y970200D01*
D02*
G37*
G36*
X1489001D02*
X1486999D01*
X1485067Y969682D01*
X1483333Y968681D01*
X1481918Y967266D01*
X1480918Y965534D01*
X1480400Y963601D01*
Y961599D01*
X1480918Y959667D01*
X1481918Y957934D01*
X1483333Y956518D01*
X1485067Y955518D01*
X1486999Y955000D01*
X1489001D01*
X1490934Y955518D01*
X1492666Y956518D01*
X1494082Y957934D01*
X1495082Y959667D01*
X1495600Y961599D01*
Y963601D01*
X1495082Y965534D01*
X1494082Y967266D01*
X1492666Y968681D01*
X1490934Y969682D01*
X1489001Y970200D01*
D02*
G37*
G36*
X1327730Y952754D02*
X1324071D01*
X1324727Y951169D01*
X1326145Y949751D01*
X1327730Y949095D01*
Y952754D01*
D02*
G37*
G36*
X987270Y950179D02*
Y946520D01*
X990929D01*
X990273Y948105D01*
X988855Y949523D01*
X987270Y950179D01*
D02*
G37*
G36*
X1417100Y957850D02*
X1396900D01*
Y946150D01*
X1417100D01*
Y957850D01*
D02*
G37*
G36*
X1203850Y955600D02*
X1180150D01*
Y944900D01*
X1203850D01*
Y955600D01*
D02*
G37*
G36*
X990929Y943980D02*
X987270D01*
Y940321D01*
X988855Y940977D01*
X990273Y942395D01*
X990929Y943980D01*
D02*
G37*
G36*
X1203850Y942900D02*
X1180150D01*
Y932200D01*
X1203850D01*
Y942900D01*
D02*
G37*
G36*
X1109350D02*
X1085650D01*
Y932200D01*
X1109350D01*
Y942900D01*
D02*
G37*
G36*
X1316886Y938100D02*
X1315056D01*
X1313366Y937400D01*
X1312072Y936105D01*
X1311371Y934415D01*
Y932585D01*
X1312072Y930894D01*
X1313366Y929600D01*
X1315056Y928900D01*
X1316886D01*
X1318577Y929600D01*
X1319871Y930894D01*
X1320571Y932585D01*
Y934415D01*
X1319871Y936105D01*
X1318577Y937400D01*
X1316886Y938100D01*
D02*
G37*
G36*
X914000Y940641D02*
X863000D01*
X862181Y940478D01*
X861486Y940014D01*
X861022Y939319D01*
X860859Y938500D01*
Y928819D01*
X859589Y928193D01*
X857376Y929890D01*
X854204Y931204D01*
X852070Y931485D01*
Y917000D01*
Y902515D01*
X854204Y902796D01*
X857376Y904109D01*
X859589Y905807D01*
X860859Y905181D01*
Y894500D01*
X861022Y893681D01*
X861486Y892986D01*
X862181Y892522D01*
X863000Y892359D01*
X914000D01*
X914819Y892522D01*
X915514Y892986D01*
X915978Y893681D01*
X916141Y894500D01*
Y902900D01*
X940362D01*
Y931100D01*
X916141D01*
Y938500D01*
X915978Y939319D01*
X915514Y940014D01*
X914819Y940478D01*
X914000Y940641D01*
D02*
G37*
G36*
X1073915Y951350D02*
X1072085D01*
X1070394Y950650D01*
X1069100Y949356D01*
X1068400Y947665D01*
Y945835D01*
X1069100Y944144D01*
X1069564Y943681D01*
Y941760D01*
X1062500D01*
X1060315Y941325D01*
X1058463Y940087D01*
X1057225Y938235D01*
X1056790Y936050D01*
X1057225Y933865D01*
X1058463Y932013D01*
X1060315Y930775D01*
X1061336Y930572D01*
Y929277D01*
X1060143Y929040D01*
X1058145Y927705D01*
X1056811Y925707D01*
X1056594Y924620D01*
X1068500D01*
Y922080D01*
X1055995D01*
X1055672Y921686D01*
X1019168D01*
X1018642Y922956D01*
X1024689Y929004D01*
X1033681D01*
X1034144Y928540D01*
X1035835Y927840D01*
X1037665D01*
X1039356Y928540D01*
X1040650Y929834D01*
X1041050Y930801D01*
X1042392Y931453D01*
X1042585Y931440D01*
X1043003Y931085D01*
X1043600Y929644D01*
X1044894Y928350D01*
X1046585Y927650D01*
X1048415D01*
X1050106Y928350D01*
X1051400Y929644D01*
X1052100Y931335D01*
Y933165D01*
X1051400Y934856D01*
X1050106Y936150D01*
X1048415Y936850D01*
X1047789D01*
X1043460Y941180D01*
X1042345Y941925D01*
X1041030Y942186D01*
X1041030Y942186D01*
X1018286D01*
X1016280Y944192D01*
Y944295D01*
X1015580Y945986D01*
X1014286Y947280D01*
X1012595Y947980D01*
X1010765D01*
X1009074Y947280D01*
X1007780Y945986D01*
X1007080Y944295D01*
Y942465D01*
X1007780Y940774D01*
X1009074Y939480D01*
X1010765Y938780D01*
X1011974D01*
X1014433Y936320D01*
X1014433Y936320D01*
X1015548Y935575D01*
X1016863Y935314D01*
X1016863Y935314D01*
X1019485D01*
X1020011Y934044D01*
X1002454Y916487D01*
X1001709Y915372D01*
X1001447Y914057D01*
X1001447Y914057D01*
Y904806D01*
X986241Y889600D01*
X985585D01*
X983894Y888900D01*
X982600Y887606D01*
X981900Y885915D01*
Y884085D01*
X982600Y882394D01*
X983894Y881100D01*
X985585Y880400D01*
X987415D01*
X989106Y881100D01*
X990400Y882394D01*
X991100Y884085D01*
Y884741D01*
X996872Y890513D01*
X998142Y889986D01*
Y888989D01*
X998909Y887137D01*
X1000327Y885719D01*
X1001912Y885063D01*
Y889992D01*
X1003182D01*
Y891262D01*
X1008111D01*
X1007455Y892847D01*
X1006037Y894265D01*
X1004184Y895032D01*
X1003187D01*
X1002661Y896302D01*
X1007313Y900954D01*
X1007313Y900954D01*
X1008058Y902068D01*
X1008319Y903383D01*
Y905884D01*
X1009589Y906733D01*
X1009980Y906571D01*
Y911500D01*
X1011250D01*
Y912770D01*
X1017379D01*
X1019423Y914814D01*
X1057020D01*
X1057699Y913544D01*
X1057225Y912835D01*
X1056790Y910650D01*
X1056931Y909941D01*
X1052647Y905657D01*
X1051839D01*
X1050165Y906350D01*
X1048335D01*
X1046644Y905650D01*
X1045350Y904356D01*
X1044650Y902665D01*
Y900835D01*
X1045350Y899144D01*
X1046644Y897850D01*
X1048335Y897150D01*
X1050165D01*
X1051856Y897850D01*
X1052790Y898785D01*
X1054071D01*
X1054071Y898785D01*
X1055386Y899046D01*
X1055764Y899299D01*
X1056907Y898535D01*
X1056790Y897950D01*
X1057225Y895765D01*
X1058463Y893913D01*
X1060315Y892675D01*
X1062500Y892240D01*
X1074500D01*
X1076685Y892675D01*
X1078537Y893913D01*
X1079775Y895765D01*
X1080210Y897950D01*
X1079775Y900135D01*
X1078537Y901987D01*
X1076685Y903225D01*
X1074500Y903660D01*
X1063360D01*
X1062784Y904930D01*
X1062793Y904940D01*
X1074500D01*
X1076685Y905375D01*
X1078537Y906613D01*
X1079775Y908465D01*
X1079880Y908993D01*
X1080001Y909074D01*
X1080141Y909214D01*
X1085650D01*
Y906800D01*
X1094064D01*
Y904800D01*
X1085650D01*
Y894100D01*
X1109350D01*
Y904800D01*
X1100936D01*
Y906800D01*
X1109350D01*
Y917500D01*
X1085650D01*
Y916086D01*
X1078718D01*
X1078718Y916086D01*
X1077403Y915824D01*
X1077119Y915635D01*
X1076685Y915925D01*
X1075664Y916128D01*
Y917423D01*
X1076857Y917660D01*
X1078855Y918995D01*
X1080190Y920993D01*
X1080273Y921414D01*
X1085210D01*
Y919060D01*
X1096230D01*
Y924850D01*
Y930640D01*
X1085210D01*
Y928286D01*
X1078218D01*
X1078218Y928286D01*
X1078038Y928250D01*
X1076857Y929040D01*
X1075664Y929277D01*
Y930572D01*
X1076685Y930775D01*
X1078537Y932013D01*
X1079775Y933865D01*
X1080210Y936050D01*
X1079775Y938235D01*
X1078537Y940087D01*
X1076685Y941325D01*
X1076436Y941375D01*
Y943681D01*
X1076900Y944144D01*
X1077600Y945835D01*
Y947665D01*
X1076900Y949356D01*
X1075606Y950650D01*
X1073915Y951350D01*
D02*
G37*
G36*
X1118020Y923679D02*
Y920020D01*
X1121679D01*
X1121023Y921605D01*
X1119605Y923023D01*
X1118020Y923679D01*
D02*
G37*
G36*
X1203850Y930200D02*
X1180150D01*
Y919500D01*
X1203850D01*
Y930200D01*
D02*
G37*
G36*
X1162543Y960421D02*
X1160316D01*
X1158257Y959568D01*
X1156682Y957993D01*
X1155829Y955934D01*
Y953707D01*
X1156682Y951648D01*
X1158257Y950073D01*
X1158573Y949942D01*
Y938581D01*
X1138773Y918782D01*
X1137711Y918881D01*
X1137339Y919055D01*
X1136747Y920482D01*
X1135172Y922057D01*
X1133114Y922910D01*
X1130886D01*
X1128828Y922057D01*
X1127253Y920482D01*
X1126400Y918424D01*
Y916569D01*
X1117570Y907740D01*
X1116825Y906625D01*
X1116564Y905310D01*
X1116564Y905310D01*
Y890350D01*
X1113900D01*
Y877150D01*
X1126100D01*
Y890350D01*
X1123436D01*
Y903887D01*
X1131259Y911710D01*
X1133114D01*
X1135172Y912563D01*
X1136303Y913693D01*
X1137573Y913167D01*
Y892100D01*
X1133150D01*
Y876900D01*
X1148350D01*
Y892100D01*
X1143927D01*
Y914949D01*
X1163997Y935019D01*
X1164685Y936050D01*
X1164927Y937265D01*
Y950398D01*
X1166177Y951648D01*
X1167029Y953707D01*
Y955934D01*
X1166177Y957993D01*
X1164602Y959568D01*
X1162543Y960421D01*
D02*
G37*
G36*
X849530Y931485D02*
X847396Y931204D01*
X844224Y929890D01*
X841500Y927800D01*
X839409Y925076D01*
X838096Y921904D01*
X837647Y918500D01*
Y918270D01*
X849530D01*
Y931485D01*
D02*
G37*
G36*
X969500Y929060D02*
X957500D01*
X955315Y928625D01*
X953463Y927387D01*
X952225Y925535D01*
X951790Y923350D01*
X952225Y921165D01*
X953463Y919313D01*
X955315Y918075D01*
X957500Y917640D01*
X969500D01*
X971685Y918075D01*
X973537Y919313D01*
X974775Y921165D01*
X975210Y923350D01*
X974775Y925535D01*
X973537Y927387D01*
X971685Y928625D01*
X969500Y929060D01*
D02*
G37*
G36*
X1514654Y923609D02*
X1511365Y923176D01*
X1508300Y921906D01*
X1505668Y919886D01*
X1503648Y917254D01*
X1502870Y915376D01*
X1501600Y915629D01*
Y923500D01*
X1476400D01*
Y895300D01*
X1501600D01*
Y903171D01*
X1502870Y903424D01*
X1503648Y901546D01*
X1505668Y898914D01*
X1508300Y896894D01*
X1511365Y895624D01*
X1514654Y895191D01*
X1517943Y895624D01*
X1521008Y896894D01*
X1523640Y898914D01*
X1525660Y901546D01*
X1526930Y904611D01*
X1527363Y907900D01*
Y910900D01*
X1526930Y914189D01*
X1525660Y917254D01*
X1523640Y919886D01*
X1521008Y921906D01*
X1517943Y923176D01*
X1514654Y923609D01*
D02*
G37*
G36*
X1121679Y917480D02*
X1118020D01*
Y913821D01*
X1119605Y914477D01*
X1121023Y915895D01*
X1121679Y917480D01*
D02*
G37*
G36*
X1109790Y930640D02*
X1098770D01*
Y924850D01*
Y919060D01*
X1109790D01*
Y919060D01*
X1111002Y919333D01*
X1111710Y918765D01*
Y917747D01*
X1112477Y915895D01*
X1113895Y914477D01*
X1115480Y913821D01*
Y918750D01*
Y924879D01*
X1113380Y926980D01*
X1112265Y927725D01*
X1110950Y927986D01*
X1109790Y928169D01*
Y930640D01*
D02*
G37*
G36*
X1233992Y912559D02*
Y908900D01*
X1237651D01*
X1236995Y910485D01*
X1235577Y911903D01*
X1233992Y912559D01*
D02*
G37*
G36*
X1231452D02*
X1229867Y911903D01*
X1228449Y910485D01*
X1227793Y908900D01*
X1231452D01*
Y912559D01*
D02*
G37*
G36*
X1203850Y917500D02*
X1180150D01*
Y906800D01*
X1203850D01*
Y917500D01*
D02*
G37*
G36*
X1016179Y910230D02*
X1012520D01*
Y906571D01*
X1014105Y907227D01*
X1015523Y908645D01*
X1016179Y910230D01*
D02*
G37*
G36*
X969500Y916360D02*
X957500D01*
X955315Y915925D01*
X953463Y914687D01*
X952225Y912835D01*
X951790Y910650D01*
X952225Y908465D01*
X953463Y906613D01*
X955315Y905375D01*
X957500Y904940D01*
X969500D01*
X971685Y905375D01*
X973537Y906613D01*
X974775Y908465D01*
X975210Y910650D01*
X974775Y912835D01*
X973537Y914687D01*
X971685Y915925D01*
X969500Y916360D01*
D02*
G37*
G36*
X1220665Y912230D02*
X1218835D01*
X1217144Y911530D01*
X1215850Y910236D01*
X1215150Y908545D01*
Y906715D01*
X1215850Y905024D01*
X1217144Y903730D01*
X1218835Y903030D01*
X1220665D01*
X1222356Y903730D01*
X1223650Y905024D01*
X1224350Y906715D01*
Y908545D01*
X1223650Y910236D01*
X1222356Y911530D01*
X1220665Y912230D01*
D02*
G37*
G36*
X1397770Y906679D02*
Y903020D01*
X1401429D01*
X1400773Y904605D01*
X1399355Y906023D01*
X1397770Y906679D01*
D02*
G37*
G36*
X1395230D02*
X1393645Y906023D01*
X1392227Y904605D01*
X1391571Y903020D01*
X1395230D01*
Y906679D01*
D02*
G37*
G36*
X1237651Y906360D02*
X1233992D01*
Y902701D01*
X1235577Y903357D01*
X1236995Y904775D01*
X1237651Y906360D01*
D02*
G37*
G36*
X1231452D02*
X1227793D01*
X1228449Y904775D01*
X1229867Y903357D01*
X1231452Y902701D01*
Y906360D01*
D02*
G37*
G36*
X849530Y915730D02*
X837647D01*
Y915500D01*
X838096Y912096D01*
X839409Y908924D01*
X841500Y906200D01*
X844224Y904109D01*
X847396Y902796D01*
X849530Y902515D01*
Y915730D01*
D02*
G37*
G36*
X1414679Y908230D02*
X1404821D01*
X1405477Y906645D01*
X1406293Y905830D01*
X1406765Y905000D01*
X1406293Y904170D01*
X1405477Y903355D01*
X1404821Y901770D01*
X1414679D01*
X1414023Y903355D01*
X1413207Y904170D01*
X1412735Y905000D01*
X1413207Y905830D01*
X1414023Y906645D01*
X1414679Y908230D01*
D02*
G37*
G36*
X1175165Y941100D02*
X1173335D01*
X1171644Y940400D01*
X1170350Y939106D01*
X1169650Y937415D01*
Y936759D01*
X1166820Y933930D01*
X1166076Y932815D01*
X1165814Y931500D01*
X1165814Y931500D01*
Y907009D01*
X1165350Y906546D01*
X1164650Y904855D01*
Y903025D01*
X1165350Y901334D01*
X1166644Y900040D01*
X1168335Y899340D01*
X1170165D01*
X1171856Y900040D01*
X1173150Y901334D01*
X1173850Y903025D01*
Y904855D01*
X1173150Y906546D01*
X1172686Y907009D01*
Y930077D01*
X1174509Y931900D01*
X1175165D01*
X1176856Y932600D01*
X1178150Y933894D01*
X1178850Y935585D01*
Y937415D01*
X1178150Y939106D01*
X1176856Y940400D01*
X1175165Y941100D01*
D02*
G37*
G36*
X1414679Y899230D02*
X1404821D01*
X1405477Y897645D01*
X1406293Y896830D01*
X1406765Y896000D01*
X1406293Y895170D01*
X1405477Y894355D01*
X1404821Y892770D01*
X1414679D01*
X1414023Y894355D01*
X1413207Y895170D01*
X1412735Y896000D01*
X1413207Y896830D01*
X1414023Y897645D01*
X1414679Y899230D01*
D02*
G37*
G36*
X969500Y903660D02*
X957500D01*
X955315Y903225D01*
X953463Y901987D01*
X952225Y900135D01*
X951790Y897950D01*
X952225Y895765D01*
X953463Y893913D01*
X955315Y892675D01*
X957500Y892240D01*
X969500D01*
X971685Y892675D01*
X973537Y893913D01*
X974775Y895765D01*
X975210Y897950D01*
X974775Y900135D01*
X973537Y901987D01*
X971685Y903225D01*
X969500Y903660D01*
D02*
G37*
G36*
X1008111Y888722D02*
X1004452D01*
Y885063D01*
X1006037Y885719D01*
X1007455Y887137D01*
X1008111Y888722D01*
D02*
G37*
G36*
X1316136Y893100D02*
X1314306D01*
X1312616Y892400D01*
X1311322Y891105D01*
X1310621Y889415D01*
Y887585D01*
X1311322Y885894D01*
X1312616Y884600D01*
X1314306Y883900D01*
X1316136D01*
X1317827Y884600D01*
X1319121Y885894D01*
X1319821Y887585D01*
Y889415D01*
X1319121Y891105D01*
X1317827Y892400D01*
X1316136Y893100D01*
D02*
G37*
G36*
X1105100Y890350D02*
X1092900D01*
Y877150D01*
X1105100D01*
Y880595D01*
X1105650Y881144D01*
X1106350Y882835D01*
Y884665D01*
X1105650Y886356D01*
X1105100Y886905D01*
Y890350D01*
D02*
G37*
G36*
X1203850Y904800D02*
X1180150D01*
Y894100D01*
X1189054D01*
X1189646Y893994D01*
X1190023Y892954D01*
X1189270Y891850D01*
X1187650D01*
Y876650D01*
X1202850D01*
Y891850D01*
X1199757D01*
X1199471Y891986D01*
X1199239Y892959D01*
X1200130Y894100D01*
X1203850D01*
Y904800D01*
D02*
G37*
G36*
X1164850Y892100D02*
X1149650D01*
Y876900D01*
X1164850D01*
Y879564D01*
X1171150D01*
Y876650D01*
X1186350D01*
Y891850D01*
X1171150D01*
Y886436D01*
X1164850D01*
Y892100D01*
D02*
G37*
G36*
X1515001Y891600D02*
X1512999D01*
X1511066Y891082D01*
X1509333Y890081D01*
X1507919Y888667D01*
X1506918Y886934D01*
X1506400Y885001D01*
Y882999D01*
X1506918Y881067D01*
X1507919Y879333D01*
X1509333Y877918D01*
X1511066Y876918D01*
X1512999Y876400D01*
X1515001D01*
X1516933Y876918D01*
X1518667Y877918D01*
X1520081Y879333D01*
X1521082Y881067D01*
X1521600Y882999D01*
Y885001D01*
X1521082Y886934D01*
X1520081Y888667D01*
X1518667Y890081D01*
X1516933Y891082D01*
X1515001Y891600D01*
D02*
G37*
G36*
X1490001D02*
X1487999D01*
X1486066Y891082D01*
X1484333Y890081D01*
X1482919Y888667D01*
X1481918Y886934D01*
X1481400Y885001D01*
Y882999D01*
X1481918Y881067D01*
X1482919Y879333D01*
X1484333Y877918D01*
X1486066Y876918D01*
X1487999Y876400D01*
X1490001D01*
X1491933Y876918D01*
X1493667Y877918D01*
X1495081Y879333D01*
X1496082Y881067D01*
X1496600Y882999D01*
Y885001D01*
X1496082Y886934D01*
X1495081Y888667D01*
X1493667Y890081D01*
X1491933Y891082D01*
X1490001Y891600D01*
D02*
G37*
%LPD*%
G36*
X1374564Y1001577D02*
Y998850D01*
X1372150D01*
Y989100D01*
X1329868D01*
X1329382Y990273D01*
X1347759Y1008650D01*
X1353100D01*
Y1008650D01*
X1353650D01*
Y1008650D01*
X1363850D01*
Y1010314D01*
X1365827D01*
X1374564Y1001577D01*
D02*
G37*
G36*
X1276314Y945045D02*
Y916423D01*
X1271297Y911407D01*
X1270839D01*
X1269165Y912100D01*
X1267335D01*
X1265644Y911400D01*
X1264350Y910106D01*
X1263650Y908415D01*
Y906585D01*
X1263935Y905896D01*
X1263087Y904626D01*
X1252837D01*
X1249214Y908249D01*
Y908905D01*
X1248513Y910596D01*
X1247219Y911890D01*
X1246028Y912383D01*
Y913758D01*
X1246856Y914100D01*
X1248150Y915394D01*
X1248850Y917085D01*
Y918915D01*
X1248150Y920606D01*
X1247686Y921069D01*
Y929827D01*
X1253416Y935557D01*
X1254492Y934837D01*
X1254400Y934614D01*
Y932386D01*
X1255253Y930328D01*
X1256828Y928753D01*
X1258886Y927900D01*
X1261114D01*
X1263172Y928753D01*
X1264747Y930328D01*
X1265600Y932386D01*
Y934614D01*
X1265197Y935587D01*
X1275141Y945531D01*
X1276314Y945045D01*
D02*
G37*
G36*
X996894Y972851D02*
X996894Y972850D01*
X998585Y972150D01*
X999181D01*
X1001760Y969570D01*
X1001760Y969570D01*
X1002875Y968826D01*
X1004190Y968564D01*
X1004190Y968564D01*
X1005900D01*
Y966900D01*
X1015380D01*
X1016100Y966900D01*
X1017370Y966900D01*
X1026064D01*
Y957923D01*
X1022869Y954729D01*
X1021411Y954125D01*
X1020298D01*
X1018274Y956148D01*
X1017160Y956893D01*
X1015845Y957154D01*
X1015844Y957154D01*
X1008705D01*
X999430Y966430D01*
X998315Y967175D01*
X997000Y967436D01*
X997000Y967436D01*
X996173D01*
X995100Y968509D01*
X995100Y971685D01*
X995103Y972850D01*
X996353Y972851D01*
X996463Y972851D01*
X996894Y972851D01*
D02*
G37*
G36*
X914000Y926509D02*
X912730Y926077D01*
X911408Y927800D01*
X908684Y929890D01*
X905512Y931204D01*
X903378Y931485D01*
Y917000D01*
Y902515D01*
X905512Y902796D01*
X908684Y904109D01*
X911408Y906200D01*
X912730Y907922D01*
X914000Y907491D01*
Y894500D01*
X863000D01*
Y910587D01*
X864270Y910839D01*
X865063Y908924D01*
X867154Y906200D01*
X869878Y904109D01*
X873050Y902796D01*
X875184Y902515D01*
Y917000D01*
Y931485D01*
X873050Y931204D01*
X869878Y929890D01*
X867154Y927800D01*
X865063Y925076D01*
X864270Y923160D01*
X863000Y923413D01*
Y938500D01*
X914000D01*
Y926509D01*
D02*
G37*
%LPC*%
G36*
X877724Y931485D02*
Y917000D01*
Y902515D01*
X879858Y902796D01*
X883030Y904109D01*
X885754Y906200D01*
X887844Y908924D01*
X888594Y910732D01*
X889968D01*
X890717Y908924D01*
X892808Y906200D01*
X895532Y904109D01*
X898704Y902796D01*
X900838Y902515D01*
Y917000D01*
Y931485D01*
X898704Y931204D01*
X895532Y929890D01*
X892808Y927800D01*
X890717Y925076D01*
X889968Y923267D01*
X888594D01*
X887844Y925076D01*
X885754Y927800D01*
X883030Y929890D01*
X879858Y931204D01*
X877724Y931485D01*
D02*
G37*
%LPD*%
D11*
X980500Y950750D02*
Y968250D01*
Y950750D02*
X986000Y945250D01*
X997000Y964000D02*
X1007281Y953718D01*
X994750Y964000D02*
X997000D01*
X974250Y984500D02*
X994750Y964000D01*
X974250Y984500D02*
Y1009000D01*
X1004190Y972000D02*
X1011000D01*
X999500Y976690D02*
X1004190Y972000D01*
X999500Y976690D02*
Y976750D01*
X1332500Y1014750D02*
X1332750Y1015000D01*
X1257604Y994328D02*
X1299828D01*
X1225000Y939000D02*
Y961724D01*
X1387500Y992734D02*
Y1013750D01*
X1332500Y1008691D02*
Y1014750D01*
X1303844Y998344D02*
X1322152D01*
X1299828Y994328D02*
X1303844Y998344D01*
X1380430Y985664D02*
X1387500Y992734D01*
X1322152Y998344D02*
X1332500Y1008691D01*
X1300086Y985664D02*
X1380430D01*
X1225000Y961724D02*
X1257604Y994328D01*
X1291500Y994250D02*
X1300086Y985664D01*
X1307960Y991040D02*
X1325290D01*
X1307000Y992000D02*
X1307960Y991040D01*
X1416162Y922000D02*
X1432750D01*
X1407500Y930662D02*
X1416162Y922000D01*
X1279750Y915000D02*
Y947816D01*
X1272721Y907971D02*
X1279750Y915000D01*
Y947816D02*
X1296354Y964420D01*
X1260000Y934707D02*
X1261754Y936461D01*
Y937004D01*
X1260000Y933500D02*
Y934707D01*
X1261754Y937004D02*
X1296060Y971310D01*
X1169250Y903940D02*
Y931500D01*
X1174250Y936500D01*
X1058607Y918250D02*
X1063707Y923350D01*
X1018000Y918250D02*
X1058607D01*
X1077000Y1004000D02*
X1077000Y1004000D01*
X1063000Y1004000D02*
X1063000Y1004000D01*
X1077000D01*
X1066500Y981750D02*
X1074000Y989250D01*
X1057000Y981750D02*
X1066500D01*
X1023529Y950689D02*
X1024000Y950218D01*
X1015845Y953718D02*
X1018874Y950689D01*
X1023529D01*
X1338435Y883189D02*
X1448690D01*
X1452750Y887250D02*
Y916000D01*
X1448690Y883189D02*
X1452750Y887250D01*
Y916000D02*
X1462000Y925250D01*
X1386230Y891250D02*
X1395750D01*
X1381000Y896480D02*
Y899480D01*
Y896480D02*
X1386230Y891250D01*
X1332992Y888633D02*
X1338435Y883189D01*
X1049250Y901750D02*
X1049721Y902221D01*
X1054071D01*
X1062501Y910650D01*
X1068500D01*
X931088Y945912D02*
X972900D01*
X984750Y934062D01*
Y907250D02*
Y934062D01*
X905400Y971600D02*
X931088Y945912D01*
X972500Y1010750D02*
X974250Y1009000D01*
X955500Y1010000D02*
X956000Y1009500D01*
X931750Y1010000D02*
X955500D01*
X1150500Y984912D02*
Y1000500D01*
X1150250Y1000750D02*
X1150500Y1000500D01*
X1133000Y967412D02*
X1150500Y984912D01*
X1133000Y949750D02*
Y967412D01*
X1118250Y965000D02*
X1126521Y956729D01*
Y935298D02*
Y956729D01*
X1073000Y937331D02*
Y946750D01*
X1071720Y936050D02*
X1073000Y937331D01*
X1097800Y924550D02*
X1110950D01*
X1116750Y918750D01*
X1014500Y1013000D02*
X1043500D01*
X995207D02*
X1014500D01*
X992957Y1010750D02*
X995207Y1013000D01*
X991750Y1010750D02*
X992957D01*
X1043500Y1013000D02*
X1044000Y1012500D01*
X991750Y992500D02*
X992957D01*
X997161Y988296D01*
X1019004D01*
X1226500Y1002750D02*
Y1003416D01*
X1228000Y1004916D02*
Y1015000D01*
X1226500Y1003416D02*
X1228000Y1004916D01*
X1381250Y974000D02*
X1399792D01*
X1402496Y976704D02*
X1406746D01*
X1399792Y974000D02*
X1402496Y976704D01*
X1396750Y993750D02*
X1406746Y983754D01*
Y976704D02*
Y983754D01*
X1396500Y993750D02*
X1396750D01*
X1403115Y1000115D01*
Y1000365D01*
X1407750Y1005000D02*
X1414000D01*
X1403115Y1000365D02*
X1407750Y1005000D01*
X1325290Y991040D02*
X1348000Y1013750D01*
X1358750D02*
X1367250D01*
X1414936Y995769D02*
X1415230Y995475D01*
X1420310D01*
X1414936Y995769D02*
Y995936D01*
X1420310Y995475D02*
X1423584Y998750D01*
X1424250D01*
X1414000Y995000D02*
X1414936Y995936D01*
X1400287Y931000D02*
X1407500D01*
Y930662D02*
Y931000D01*
X1120000Y905310D02*
X1132000Y917310D01*
X1244250Y918000D02*
Y931250D01*
X1276000Y963000D01*
X1276000D01*
X1296060Y971310D02*
X1362940D01*
X1379250Y955000D02*
X1381250D01*
X1362940Y971310D02*
X1379250Y955000D01*
X1296354Y964420D02*
X1302419D01*
X1303000Y965000D01*
X1244614Y907990D02*
X1251414Y901190D01*
X1120000Y883750D02*
Y905310D01*
X1097500Y924850D02*
X1097800Y924550D01*
X1078218Y924850D02*
X1097500D01*
X1268721Y907971D02*
X1272721D01*
X1268250Y907500D02*
X1268721Y907971D01*
X1318391Y904020D02*
X1319056D01*
X1315560Y901190D02*
X1318391Y904020D01*
X1251414Y901190D02*
X1315560D01*
X1024208Y993500D02*
X1044000D01*
X1019004Y988296D02*
X1024208Y993500D01*
X1044000Y993500D02*
X1059500D01*
X1210077Y1003081D02*
Y1007076D01*
X1216250Y1013250D01*
X1219657Y993500D02*
X1230140D01*
X1210077Y1003081D02*
X1219657Y993500D01*
X1216500Y1015000D02*
X1218000D01*
X1216750Y1013750D02*
X1217250Y1014250D01*
X1192250Y1014000D02*
X1215500D01*
X1216000Y1014500D01*
X1192000Y1013750D02*
X1192250Y1014000D01*
X1004883Y914057D02*
X1023266Y932440D01*
X986500Y885000D02*
X1004883Y903383D01*
X1023266Y932440D02*
X1036750D01*
X1004883Y903383D02*
Y914057D01*
X1230140Y993500D02*
X1245640Y1009000D01*
Y1011000D01*
X1192000Y899450D02*
X1193731Y897719D01*
Y893878D02*
X1195250Y892359D01*
X1193731Y893878D02*
Y897719D01*
X1195250Y883000D02*
Y892359D01*
X1087338Y950250D02*
X1097500D01*
X1069353Y924203D02*
X1077571D01*
X1078218Y924850D01*
X1068500Y923350D02*
X1069353Y924203D01*
X1077571Y911503D02*
X1078718Y912650D01*
X1068500Y910650D02*
X1069353Y911503D01*
X1097000Y912650D02*
X1097500Y912150D01*
Y899450D02*
Y912150D01*
X1078718Y912650D02*
X1097000D01*
X1069353Y911503D02*
X1077571D01*
X1041030Y938750D02*
X1047500Y932280D01*
Y932250D02*
Y932280D01*
X1016863Y938750D02*
X1041030D01*
X1012233Y943380D02*
X1016863Y938750D01*
X1011680Y943380D02*
X1012233D01*
X1011250Y911500D02*
X1018000Y918250D01*
X1295422Y936578D02*
X1332992Y899008D01*
X1292422Y936578D02*
X1295422D01*
X1332992Y888633D02*
Y899008D01*
X1292000Y937000D02*
X1292422Y936578D01*
X1344676Y891032D02*
X1365504Y911860D01*
X1463750Y968250D02*
Y978749D01*
Y968250D02*
X1464000Y968000D01*
X1062866Y1013866D02*
X1063000Y1014000D01*
X1058178Y1013866D02*
X1062866D01*
X1056812Y1012500D02*
X1058178Y1013866D01*
X1044000Y1012500D02*
X1056812D01*
X1063000Y1014000D02*
X1073690D01*
X1059500Y993500D02*
X1062990Y990010D01*
X1064000Y989000D01*
X1062990Y990010D02*
Y1000242D01*
X1007281Y953718D02*
X1015845D01*
X1021750Y972000D02*
X1026250D01*
X1029500Y968750D01*
Y956500D02*
Y968750D01*
X1024000Y951000D02*
X1029500Y956500D01*
X1044145Y974230D02*
X1052520D01*
X1041000Y976000D02*
X1042375D01*
X1056750Y970000D02*
X1057000Y969750D01*
X1042375Y976000D02*
X1044145Y974230D01*
X1282000Y1009000D02*
X1288000Y1015000D01*
X1322000D01*
X1322000Y1015000D01*
X1052520Y974230D02*
X1056750Y970000D01*
X1444230Y1009770D02*
X1453000Y1001000D01*
Y979000D02*
Y1001000D01*
X1438000Y1013500D02*
X1441730Y1009770D01*
X1444230D01*
X1462750Y979750D02*
Y990150D01*
X1462000Y990900D02*
X1462750Y990150D01*
Y979750D02*
X1463750Y978749D01*
X1471380Y951773D02*
X1472620Y953013D01*
X1471380Y934630D02*
Y951773D01*
X1462000Y1002251D02*
X1472620Y991631D01*
Y953013D02*
Y991631D01*
X1462000Y925250D02*
X1471380Y934630D01*
X1426000Y980000D02*
X1426972Y980972D01*
Y982472D02*
X1438000Y993500D01*
X1426972Y980972D02*
Y982472D01*
X1424625Y980000D02*
X1426000D01*
X1406746Y976704D02*
X1421329D01*
X1424625Y980000D01*
X1367250Y1013750D02*
X1378000Y1003000D01*
Y995000D02*
Y1003000D01*
X905400Y971600D02*
Y986000D01*
X1464000Y892000D02*
Y908750D01*
X1082548Y955040D02*
X1087338Y950250D01*
X1082548Y955040D02*
Y958952D01*
X1073500Y968000D02*
X1082548Y958952D01*
X1371600Y932001D02*
X1379500D01*
X1365504Y925905D02*
X1371600Y932001D01*
X1365504Y911860D02*
Y925905D01*
X1392500Y927934D02*
Y932001D01*
X1399286D02*
X1400287Y931000D01*
X1392500Y932001D02*
X1399286D01*
X1157249Y883000D02*
X1175750D01*
X1062990Y1000242D02*
X1063000Y1000252D01*
Y1004000D01*
X1073690Y1014000D02*
X1077000D01*
D16*
X1381000Y899000D02*
D03*
X1441000D02*
D03*
D17*
X1056750Y970000D02*
D03*
X1073250D02*
D03*
X1195250Y884250D02*
D03*
X1178750D02*
D03*
X1140750Y884500D02*
D03*
X1157250D02*
D03*
X972500Y1010750D02*
D03*
X956000D02*
D03*
D18*
X1463750Y908250D02*
D03*
Y924750D02*
D03*
D19*
X1349000Y939000D02*
D03*
X1225000D02*
D03*
D20*
X1396500Y993750D02*
D03*
X1377500D02*
D03*
X1387500Y1013750D02*
D03*
D21*
X1014500Y1013000D02*
D03*
X1014754Y988296D02*
D03*
X1407000Y952000D02*
D03*
X1406746Y976704D02*
D03*
D22*
X1414000Y1005000D02*
D03*
Y995000D02*
D03*
X1077000Y1014000D02*
D03*
Y1004000D02*
D03*
X1063000Y1014000D02*
D03*
Y1004000D02*
D03*
D23*
X1074000Y989250D02*
D03*
X1064000D02*
D03*
X980500Y968250D02*
D03*
X990500D02*
D03*
X1218000Y1015000D02*
D03*
X1228000D02*
D03*
D24*
X1381250Y974000D02*
D03*
Y955000D02*
D03*
X1044000Y1012500D02*
D03*
Y993500D02*
D03*
D25*
X1463500Y882412D02*
D03*
Y893250D02*
D03*
D26*
X1407162Y931000D02*
D03*
X1418000D02*
D03*
X1358750Y1013750D02*
D03*
X1348000D02*
D03*
X1332750Y1015000D02*
D03*
X1322000D02*
D03*
X1011000Y972000D02*
D03*
X1021750D02*
D03*
X1453000Y979000D02*
D03*
X1463500D02*
D03*
D27*
X1245640Y1011000D02*
D03*
X1268500D02*
D03*
D28*
X1120000Y883750D02*
D03*
X1099000D02*
D03*
D29*
X1438000Y1012000D02*
D03*
Y994500D02*
D03*
X1462000Y1003250D02*
D03*
D30*
X1068500Y897950D02*
D03*
Y910650D02*
D03*
Y923350D02*
D03*
Y936050D02*
D03*
X963500D02*
D03*
Y923350D02*
D03*
Y910650D02*
D03*
Y897950D02*
D03*
D31*
X1392500Y932000D02*
D03*
X1379500D02*
D03*
D32*
X1192000Y1013750D02*
D03*
Y1001050D02*
D03*
Y988350D02*
D03*
Y975650D02*
D03*
Y962950D02*
D03*
Y950250D02*
D03*
Y937550D02*
D03*
Y924850D02*
D03*
Y912150D02*
D03*
Y899450D02*
D03*
X1097500D02*
D03*
Y912150D02*
D03*
Y924850D02*
D03*
Y937550D02*
D03*
Y950250D02*
D03*
Y962950D02*
D03*
Y975650D02*
D03*
Y988350D02*
D03*
Y1001050D02*
D03*
Y1013750D02*
D03*
D58*
X1145645Y1006750D02*
X1161000D01*
X1164500Y1003250D01*
X1141645Y1002750D02*
X1145645Y1006750D01*
X1144014Y1011000D02*
X1164692D01*
X1140898Y1007884D02*
X1144014Y1011000D01*
X1164692D02*
X1170116Y1005576D01*
X1174447Y1014500D02*
X1175250D01*
X1134250Y1013500D02*
X1134992D01*
X1136924Y1015432D01*
X1173515D01*
X1174447Y1014500D01*
X1114500Y1002750D02*
X1141645D01*
X1170116Y993153D02*
Y1005576D01*
X1116750Y1013000D02*
X1121866Y1007884D01*
X1141906Y964943D02*
X1170116Y993153D01*
X1121866Y1007884D02*
X1140898D01*
X1145750Y955500D02*
Y955981D01*
X1141906Y959824D02*
X1145750Y955981D01*
X1141906Y959824D02*
Y964943D01*
X1161430Y954820D02*
X1161750Y954500D01*
Y937265D02*
Y954500D01*
X1140750Y916265D02*
X1161750Y937265D01*
X1140750Y884500D02*
Y916265D01*
X1211250Y967750D02*
X1219922D01*
X1258188Y1006016D02*
X1265516D01*
X1219922Y967750D02*
X1258188Y1006016D01*
X1268500Y1009000D02*
Y1011000D01*
X1265516Y1006016D02*
X1268500Y1009000D01*
D59*
X927762Y917000D02*
D03*
X905400Y986000D02*
D03*
X1488000Y988000D02*
D03*
X1489000Y909400D02*
D03*
D60*
X902108Y917000D02*
D03*
X876454D02*
D03*
X850800D02*
D03*
X853584Y986000D02*
D03*
X879492D02*
D03*
X1513654Y988000D02*
D03*
X1514654Y909400D02*
D03*
D61*
X855000Y1011400D02*
D03*
X905400D02*
D03*
X880400D02*
D03*
X1488000Y962600D02*
D03*
X1513000D02*
D03*
X1489000Y884000D02*
D03*
X1514000D02*
D03*
D62*
X1442000Y950000D02*
D03*
X949000Y977000D02*
D03*
D63*
X980500Y968250D02*
D03*
X999500Y976750D02*
D03*
X1307000Y992000D02*
D03*
X1057000Y981750D02*
D03*
X1024000Y950218D02*
D03*
X1395750Y891250D02*
D03*
X1396500Y901750D02*
D03*
X1373750Y918500D02*
D03*
X1382750D02*
D03*
X1391750D02*
D03*
X1400750D02*
D03*
X1409750Y891500D02*
D03*
Y900500D02*
D03*
Y909500D02*
D03*
Y918500D02*
D03*
X1049250Y901750D02*
D03*
X986000Y945250D02*
D03*
X931750Y1010000D02*
D03*
X1150250Y1000750D02*
D03*
X1134250Y1013500D02*
D03*
X1164500Y1003250D02*
D03*
X1116750Y1013000D02*
D03*
X1114500Y1002750D02*
D03*
X1175250Y1014500D02*
D03*
X1145750Y955500D02*
D03*
X1133000Y949750D02*
D03*
X1118250Y965000D02*
D03*
X1126521Y935298D02*
D03*
X1156250Y968250D02*
D03*
X1174250Y936500D02*
D03*
X1421500Y930750D02*
D03*
X1219750Y907630D02*
D03*
X1232722D02*
D03*
X1073000Y946750D02*
D03*
X1116750Y918750D02*
D03*
X1226500Y1002750D02*
D03*
X1424250Y998750D02*
D03*
X1169250Y903940D02*
D03*
X1170164Y967086D02*
D03*
X1244250Y918000D02*
D03*
X1303000Y965000D02*
D03*
X1244614Y907990D02*
D03*
X1101750Y883750D02*
D03*
X1268250Y907500D02*
D03*
X1284750Y909500D02*
D03*
X1464000Y908750D02*
D03*
X1463500Y882412D02*
D03*
X1210077Y1003081D02*
D03*
X1218000Y1015000D02*
D03*
X986500Y885000D02*
D03*
X1381250Y955000D02*
D03*
X1047500Y932250D02*
D03*
X1346750Y941750D02*
D03*
X1003182Y889992D02*
D03*
X984750Y907250D02*
D03*
X1036750Y932440D02*
D03*
X1011250Y911500D02*
D03*
X1315971Y933500D02*
D03*
X1319056Y904020D02*
D03*
X1432750Y922000D02*
D03*
X1407000Y952000D02*
D03*
X1444250Y906000D02*
D03*
X1315221Y888500D02*
D03*
X1344676Y891032D02*
D03*
X1464000Y968000D02*
D03*
X1041000Y976000D02*
D03*
X1292000Y937000D02*
D03*
X1276000Y963000D02*
D03*
X1282000Y1009000D02*
D03*
X1329000Y954024D02*
D03*
X1011680Y943380D02*
D03*
X1462000Y990900D02*
D03*
X1426000Y980000D02*
D03*
D64*
X1161430Y954820D02*
D03*
X1132000Y917310D02*
D03*
X991750Y1010750D02*
D03*
Y992500D02*
D03*
X1260000Y933500D02*
D03*
X1211250Y967750D02*
D03*
M02*
