G04*
G04 #@! TF.GenerationSoftware,Altium Limited,Altium Designer,22.6.1 (34)*
G04*
G04 Layer_Physical_Order=4*
G04 Layer_Color=16711680*
%FSLAX44Y44*%
%MOMM*%
G71*
G04*
G04 #@! TF.SameCoordinates,34CEF4AE-E416-4031-B028-95ACDE368F96*
G04*
G04*
G04 #@! TF.FilePolarity,Positive*
G04*
G01*
G75*
%ADD11C,0.2540*%
%ADD17R,1.1000X1.1000*%
%ADD18R,1.1000X1.1000*%
%ADD19R,0.5000X0.5000*%
%ADD20R,0.5000X0.5000*%
%ADD22R,1.6000X0.7500*%
%ADD24R,0.6000X0.6000*%
%ADD25R,0.6000X0.6000*%
%ADD31R,0.3000X0.8000*%
%ADD56O,2.1000X2.4000*%
%ADD57R,2.1000X2.4000*%
%ADD58C,1.1000*%
%ADD59C,4.0000*%
%ADD60C,0.7620*%
%ADD61C,1.2700*%
%ADD62R,2.4000X2.0000*%
%ADD63O,0.6500X2.0500*%
%ADD64R,0.8000X0.3500*%
%ADD65R,0.3500X0.8000*%
%ADD66R,1.0000X1.0000*%
%ADD67O,1.7780X0.7112*%
%ADD68R,1.7780X0.7112*%
%ADD69R,2.5000X1.6000*%
%ADD70R,6.0000X5.8000*%
%ADD71O,1.1000X0.3800*%
D11*
X1224648Y997230D02*
Y999534D01*
X1233240Y986239D02*
Y1005990D01*
X1225230Y1014000D02*
X1233240Y1005990D01*
X1220050Y992632D02*
X1224648Y997230D01*
X1220050Y966050D02*
Y992632D01*
X1224648Y999534D02*
X1225620Y1000506D01*
X1232750Y985750D02*
X1233240Y986239D01*
X1042000Y903000D02*
X1051000D01*
X1038000Y884000D02*
Y899000D01*
X1042000Y903000D01*
X1039660Y910298D02*
X1043922Y914560D01*
X1056001D01*
X1030298Y910298D02*
X1039660D01*
X1029000Y909000D02*
X1030298Y910298D01*
X1051972Y887154D02*
X1080846D01*
X1037491Y883491D02*
X1038000Y884000D01*
X1060310Y907552D02*
X1068672Y899190D01*
X1071994D02*
X1072024Y899160D01*
X1068672Y899190D02*
X1071994D01*
X1080846Y887154D02*
X1084000Y884000D01*
X1072024Y899160D02*
X1101598D01*
X1060310Y907552D02*
Y910328D01*
X1084000Y884000D02*
X1093623D01*
X1056000Y1006000D02*
X1056000Y1006000D01*
X1037850Y1006000D02*
X1056000D01*
X1031350Y1012500D02*
X1037850Y1006000D01*
X1020000Y995000D02*
X1063416D01*
X1065276Y993140D01*
X1014476Y989476D02*
X1020000Y995000D01*
X1014476Y960374D02*
Y989476D01*
X1336366Y1020000D02*
X1344666Y1011700D01*
X1311775Y1020000D02*
X1336366D01*
X1297745Y1005970D02*
X1311775Y1020000D01*
X1378025Y975943D02*
X1397254Y995172D01*
Y999000D01*
X1406500D01*
X1104738Y919988D02*
X1130000D01*
X1092750Y908000D02*
X1104738Y919988D01*
X1157478Y930148D02*
X1168198Y940868D01*
X1109005Y930148D02*
X1157478D01*
X850800Y917000D02*
X851900Y918100D01*
Y945900D02*
X853000Y947000D01*
X851900Y918100D02*
Y945900D01*
X877324Y938324D02*
X901549D01*
X877000Y938000D02*
X877324Y938324D01*
X901549D02*
X901873Y938648D01*
X863750Y947000D02*
X872750Y938000D01*
X853000Y947000D02*
X863750D01*
X872750Y938000D02*
X877000D01*
X867300Y957000D02*
X873004Y962704D01*
X853000Y957000D02*
X867300D01*
X873004Y962704D02*
X877254D01*
X901803Y963028D02*
X902127Y963352D01*
X877254Y962704D02*
X877578Y963028D01*
X901803D01*
X902127Y963352D02*
X902303Y963176D01*
X920824D01*
X921000Y963000D01*
X1064391Y927800D02*
X1072571Y919620D01*
Y919542D02*
X1073904Y918210D01*
X1067491Y917438D02*
Y917515D01*
X1066495Y932880D02*
X1071375Y928000D01*
X1067491Y917438D02*
X1071520Y913409D01*
X1056001Y914560D02*
X1058001Y912560D01*
X1053838Y931092D02*
X1062209Y922720D01*
X1072571Y919542D02*
Y919620D01*
X1054598Y944700D02*
X1066418Y932880D01*
X1058078Y912560D02*
X1060310Y910328D01*
X1064314Y927800D02*
X1064391D01*
X1052494Y939620D02*
X1064314Y927800D01*
X1071375Y928000D02*
X1079500D01*
X1062209Y922720D02*
X1062287D01*
X1058001Y912560D02*
X1058078D01*
X1066418Y932880D02*
X1066495D01*
X1053000Y921000D02*
X1054230Y919770D01*
X1062287Y922720D02*
X1067491Y917515D01*
X1071520Y911730D02*
Y913409D01*
Y911730D02*
X1075250Y908000D01*
X1073904Y918210D02*
X1092454D01*
X1005638Y889509D02*
X1024259D01*
X1005000Y888871D02*
X1005638Y889509D01*
X997309Y896491D02*
X1021690D01*
X1024259Y889509D02*
X1024500Y889750D01*
X988548Y887730D02*
X997309Y896491D01*
X1021690D02*
X1021974Y896776D01*
X1044908Y931092D02*
X1053838D01*
X1068067Y951084D02*
X1069150Y950001D01*
X1066692Y951084D02*
X1068067D01*
X1070293Y936461D02*
X1100949D01*
X1055665Y951336D02*
X1068062Y938939D01*
X1031596Y951336D02*
X1055665D01*
X1069150Y950001D02*
X1073141D01*
X1068062Y938693D02*
Y938939D01*
Y938693D02*
X1070293Y936461D01*
X1125028Y1005972D02*
X1126000Y1005000D01*
X1125028Y1005972D02*
Y1007472D01*
X1118500Y1014000D02*
X1125028Y1007472D01*
X1114100Y1002000D02*
Y1003375D01*
X1109730Y1007745D02*
Y1012270D01*
Y1007745D02*
X1114100Y1003375D01*
X1166492Y1006655D02*
Y1008492D01*
X1161249Y1001121D02*
Y1001412D01*
X1166492Y1006655D01*
X1151020Y1000770D02*
Y1008770D01*
X1150200Y999949D02*
X1151020Y1000770D01*
X1138750Y997850D02*
Y1003000D01*
X1143092Y986507D02*
X1143850Y985750D01*
X1151020Y1008770D02*
X1155250Y1013000D01*
X1138750Y997850D02*
X1143850Y992750D01*
X1283550Y896155D02*
X1285379Y897984D01*
X1283550Y890250D02*
Y896155D01*
X1285379Y897984D02*
X1291985D01*
X1298000Y904000D01*
X1305000Y926770D02*
X1311730Y933500D01*
X1315971D01*
X1305000Y919000D02*
Y926770D01*
X1275028Y907028D02*
X1276000Y908000D01*
X1289254Y915620D02*
X1293114Y919480D01*
X1272844Y915620D02*
X1289254D01*
X1275028Y902499D02*
Y907028D01*
X1268222Y910998D02*
X1272844Y915620D01*
X1258150Y890250D02*
Y897250D01*
X1270850Y890250D02*
Y898321D01*
X1258150Y897250D02*
X1268222Y907322D01*
X1270850Y898321D02*
X1275028Y902499D01*
X1268222Y907322D02*
Y910998D01*
X1212972Y904328D02*
Y908028D01*
X1212000Y909000D02*
X1212972Y908028D01*
X1220050Y890250D02*
Y897250D01*
X1212972Y904328D02*
X1220050Y897250D01*
X1225000Y905000D02*
Y914000D01*
X1203000Y912000D02*
X1212620Y921620D01*
X1229380D02*
X1237881Y913119D01*
X1225000Y905000D02*
X1232750Y897250D01*
X1212620Y921620D02*
X1229380D01*
X1232750Y890250D02*
Y897250D01*
X1245450Y904216D02*
X1245620Y904386D01*
Y911940D02*
X1255522Y921842D01*
X1237881Y907661D02*
Y913119D01*
Y907661D02*
X1238000Y907542D01*
X1245620Y904386D02*
Y911940D01*
X1245450Y890250D02*
Y904216D01*
X1203000Y904272D02*
Y912000D01*
Y904272D02*
X1207350Y899922D01*
Y890250D02*
Y899922D01*
X1176400Y1005441D02*
X1188441D01*
X1169250Y978375D02*
Y985750D01*
X1160178Y969303D02*
X1169250Y978375D01*
X1160178Y968928D02*
Y969303D01*
X1168744Y956228D02*
X1173896Y961380D01*
X1119134Y956300D02*
X1143903D01*
X1170728Y951028D02*
X1176000Y956300D01*
X1154407Y941445D02*
X1163990Y951028D01*
X1117622Y941445D02*
X1154407D01*
X1148298Y961308D02*
X1166639D01*
X1172832Y945948D02*
X1178104Y951220D01*
X1156511Y936365D02*
X1166094Y945948D01*
X1143975Y956228D02*
X1168744D01*
X1163990Y951028D02*
X1170728D01*
X1144270Y964946D02*
X1144660D01*
X1166639Y961308D02*
X1171792Y966460D01*
X1143903Y956300D02*
X1143975Y956228D01*
X1166094Y945948D02*
X1172832D01*
X1119726Y936365D02*
X1156511D01*
X1144660Y964946D02*
X1148298Y961308D01*
X1168198Y940868D02*
X1174937D01*
X1179965Y945896D01*
X1173896Y961380D02*
X1215380D01*
X1220050Y966050D01*
X1250973Y935736D02*
X1255522Y931187D01*
X1170324Y929072D02*
X1182069Y940816D01*
X1307602Y951220D02*
X1312418Y946404D01*
X1193800Y935736D02*
X1250973D01*
X1287018Y945896D02*
X1293114Y939800D01*
X1179830Y921766D02*
X1193800Y935736D01*
X1178104Y951220D02*
X1307602D01*
X1176000Y956300D02*
X1226245D01*
X1280922Y937600D02*
Y937768D01*
X1277874Y940816D02*
X1280922Y937768D01*
X1179965Y945896D02*
X1287018D01*
X1182069Y940816D02*
X1277874D01*
X974000Y942750D02*
X979130Y937620D01*
Y930870D02*
Y937620D01*
Y930870D02*
X980000Y930000D01*
X1065276Y993140D02*
X1093724D01*
X1029000Y967750D02*
X1033230Y971980D01*
X1045605D01*
X1047625Y974000D02*
X1049000D01*
X1045605Y971980D02*
X1047625Y974000D01*
X1293114Y919480D02*
Y939800D01*
X1188441Y1005441D02*
X1197000Y1014000D01*
X1207350Y985750D02*
Y992632D01*
X1182000Y1014000D02*
X1183230Y1012770D01*
X1166492Y1008492D02*
X1172000Y1014000D01*
X1108000D02*
X1109730Y1012270D01*
X1094327Y985352D02*
X1118035Y961644D01*
X1050127Y985352D02*
X1094327D01*
X1093724Y993140D02*
X1117600Y969264D01*
X1039962Y985352D02*
X1050127D01*
X1138750Y1003000D02*
Y1013000D01*
X1143850Y985750D02*
Y992750D01*
X1025000Y940000D02*
X1026375D01*
X1031075Y944700D01*
X1054598D01*
X1025657Y955900D02*
X1027032D01*
X1031596Y951336D01*
X1037620Y939620D02*
X1052494D01*
X1044000Y932000D02*
X1044908Y931092D01*
X1034000Y936000D02*
X1037620Y939620D01*
X1034000Y920075D02*
Y936000D01*
X1024741Y915991D02*
X1029916D01*
X1034000Y920075D01*
X1024500Y915750D02*
X1024741Y915991D01*
X1073141Y950001D02*
X1077372Y945771D01*
X1024741Y883491D02*
X1037491D01*
X1024500Y883250D02*
X1024741Y883491D01*
X1100949Y936461D02*
X1104797Y940308D01*
X1118588Y935228D02*
X1119726Y936365D01*
X1100545Y926301D02*
X1105158D01*
X1109005Y930148D01*
X1091881Y931381D02*
X1103054D01*
X1093871Y945771D02*
X1105160D01*
X1106873Y947484D02*
X1113078D01*
X1104797Y940308D02*
X1116484D01*
X1105160Y945771D02*
X1106873Y947484D01*
X1092454Y918210D02*
X1100545Y926301D01*
X1113078Y947484D02*
X1114050Y948456D01*
X1090500Y930000D02*
X1091881Y931381D01*
X1106901Y935228D02*
X1118588D01*
X1103054Y931381D02*
X1106901Y935228D01*
X1116484Y940308D02*
X1117622Y941445D01*
X1081000Y956300D02*
X1119134D01*
X1118035Y961644D02*
X1130808D01*
X1101598Y899160D02*
X1112266Y909828D01*
X1114117Y904494D02*
X1154176D01*
X1093623Y884000D02*
X1114117Y904494D01*
X1112266Y909828D02*
X1151128D01*
X1344666Y1011700D02*
X1350000D01*
X1166013Y921766D02*
X1167168Y920611D01*
X1173481D02*
X1174635Y921766D01*
X1226245Y956300D02*
X1240565Y970620D01*
X1174635Y921766D02*
X1179830D01*
X1163066D02*
X1166013D01*
X1240565Y970620D02*
X1285405D01*
X1171792Y966460D02*
X1186258D01*
X1194650Y974852D01*
X1167168Y920611D02*
X1173481D01*
X1297745Y982960D02*
Y1005970D01*
X1285405Y970620D02*
X1297745Y982960D01*
X1170324Y928231D02*
Y929072D01*
X1344676Y946404D02*
X1362277Y964005D01*
X1312418Y946404D02*
X1344676D01*
X1276000Y963000D02*
X1287104D01*
X1314958Y990854D01*
X1303250Y965250D02*
X1314750D01*
X1303000Y965000D02*
X1303250Y965250D01*
X1314750D02*
X1315000Y965500D01*
Y955000D02*
X1315972Y954028D01*
X1322427D01*
X1322455Y954000D01*
X1325669D01*
X1207500Y1014000D02*
X1225230D01*
X1314705Y1000750D02*
X1318750D01*
X1306748Y1002252D02*
X1313202D01*
X1305776Y1003224D02*
X1306748Y1002252D01*
X1313202D02*
X1314705Y1000750D01*
X1318750D02*
X1327000Y1009000D01*
X1335310Y976000D02*
X1337300Y977990D01*
Y978934D01*
X1329000Y976000D02*
X1335310D01*
X1337300Y978934D02*
X1344666Y986300D01*
X1350000D01*
X1327000Y978000D02*
X1329000Y976000D01*
X1327000Y978000D02*
Y997000D01*
X1315000Y976000D02*
X1329000D01*
X1325669Y954000D02*
X1329000Y957331D01*
X974000Y942750D02*
Y945000D01*
X986000D01*
X948250Y920000D02*
X948730Y919520D01*
Y917270D02*
Y919520D01*
X946000Y920000D02*
X948250D01*
X957434Y915750D02*
X965500D01*
X956056Y917128D02*
Y932434D01*
X948730Y917270D02*
X956750Y909250D01*
X956056Y917128D02*
X957434Y915750D01*
X956750Y909250D02*
X966446D01*
X951174Y905500D02*
X953924Y902750D01*
X966809D01*
X960958Y896000D02*
X960967Y896009D01*
X945710Y894750D02*
X954750D01*
X956000Y896000D01*
X960958D01*
X960967Y896009D02*
X965200D01*
X965210Y896000D01*
X965500Y889168D02*
X968927D01*
X969682Y889923D01*
X975614Y892032D02*
Y901158D01*
X969682Y889923D02*
X973504D01*
X975614Y892032D01*
X1042466Y919640D02*
X1043000D01*
X1023184Y896776D02*
X1024500Y895460D01*
X1021974Y896776D02*
X1023184D01*
X1015099Y902170D02*
X1024632D01*
X1024842Y901960D01*
X1007298Y909972D02*
Y950702D01*
Y909972D02*
X1015099Y902170D01*
X994918Y963082D02*
Y995680D01*
Y963082D02*
X1007298Y950702D01*
X930630Y1020710D02*
X931028Y1020312D01*
Y1017972D02*
Y1020312D01*
Y1017972D02*
X932000Y1017000D01*
X851144Y1020710D02*
X930630D01*
X946000Y882020D02*
X948130D01*
X948730Y882620D01*
X965500D01*
X836490Y1006056D02*
X851144Y1020710D01*
X836490Y909573D02*
Y1006056D01*
Y909573D02*
X870872Y875190D01*
X1289411D01*
X1297641Y883420D01*
X1441902Y903402D02*
X1447900Y909400D01*
X1437500Y899000D02*
X1441902Y903402D01*
X1315212Y888500D02*
Y914654D01*
X1302721Y888500D02*
X1315212D01*
X1415034Y999000D02*
Y1003300D01*
X1350000Y999000D02*
X1363962D01*
X1367790Y995172D01*
X1415680Y911000D02*
X1419080Y914400D01*
X1427480Y885698D02*
X1429500D01*
X1194650Y890250D02*
Y923290D01*
X1198328Y926968D01*
X1244976D01*
X1246124Y928116D01*
X1325372Y910336D02*
X1344676Y891032D01*
X1273048Y925830D02*
X1285494D01*
X1260602Y913384D02*
X1273048Y925830D01*
X1151128Y909828D02*
X1163066Y921766D01*
X1255522Y921842D02*
Y931187D01*
X1430528Y926084D02*
X1474724D01*
X1478788Y930148D01*
X1169250Y904328D02*
X1170178Y905256D01*
X1169250Y890250D02*
Y904328D01*
X1154176Y904494D02*
X1162558Y912876D01*
X1177798D01*
X1181950Y908724D01*
Y890250D02*
Y908724D01*
X1378025Y967740D02*
Y975943D01*
X1374289Y964005D02*
X1378025Y967740D01*
X1362277Y964005D02*
X1374289D01*
X1406500Y999000D02*
X1415034D01*
Y1003300D02*
X1418590Y1006856D01*
X1507350D01*
X1513700Y1000506D01*
Y988000D02*
Y1000506D01*
X880000Y986000D02*
Y998220D01*
X883810Y1002030D01*
X988568D01*
X994918Y995680D01*
X1194650Y974852D02*
Y985750D01*
X1329000Y957331D02*
Y966000D01*
X1119134Y956300D02*
X1125220Y950214D01*
X1406500Y986300D02*
X1415542D01*
X1420604Y991362D01*
X1458214D01*
X1461008Y988568D01*
X1474736Y988000D02*
X1488300D01*
X1467439Y980703D02*
X1474736Y988000D01*
X1454921Y980703D02*
X1467439D01*
X1449832Y975614D02*
X1454921Y980703D01*
X1433941Y975614D02*
X1449832D01*
X1402191Y943864D02*
X1433941Y975614D01*
X1350010Y943864D02*
X1402191D01*
X1350010Y934720D02*
Y943864D01*
X1335532Y920242D02*
X1350010Y934720D01*
X1320800Y920242D02*
X1335532D01*
X1315212Y914654D02*
X1320800Y920242D01*
X1315212Y888500D02*
X1315221D01*
X1462786Y971296D02*
X1481836Y952246D01*
X1503680D01*
X1514400Y941526D01*
Y909400D02*
Y941526D01*
X1441902Y903402D02*
Y916369D01*
X1297641Y883420D02*
X1302721Y888500D01*
X1117600Y969264D02*
X1126744D01*
X1447900Y909400D02*
X1489000D01*
X1045464Y960648D02*
X1049873D01*
X1081000Y956300D02*
Y967000D01*
X1130808Y961644D02*
X1134364Y965200D01*
Y973670D01*
X1131150Y976884D02*
X1134364Y973670D01*
X1131150Y976884D02*
Y985750D01*
X1362710Y995172D02*
X1367790D01*
X1081000Y1007000D02*
X1101000D01*
X1108000Y1014000D01*
X987298Y976624D02*
Y990500D01*
X963863Y953189D02*
X987298Y976624D01*
X944880Y953189D02*
X963863D01*
X927000Y935309D02*
X944880Y953189D01*
X927000Y917000D02*
Y935309D01*
X975614Y901158D02*
X998000Y923544D01*
Y942000D01*
X1364387Y973600D02*
X1387991Y997204D01*
X1350000Y973600D02*
X1364387D01*
X1427000Y895322D02*
Y899000D01*
Y895322D02*
X1430782Y891540D01*
X1439960D01*
X1442500Y889000D01*
Y883000D02*
Y889000D01*
X946000Y905500D02*
X951174D01*
X956056Y932434D02*
X961000Y937378D01*
Y942000D01*
X1406500Y973600D02*
Y986300D01*
X1038860Y984250D02*
X1039962Y985352D01*
X1029000Y984250D02*
X1038860D01*
X1406500Y999000D02*
Y1011700D01*
X1072752Y1007000D02*
X1081000D01*
X1063752Y1016000D02*
X1072752Y1007000D01*
X1056000Y1016000D02*
X1063752D01*
X876200Y917000D02*
X901600D01*
X1419080Y914400D02*
Y921160D01*
X1384000Y911000D02*
X1415680D01*
X1419098Y894080D02*
Y911098D01*
Y894080D02*
X1427480Y885698D01*
X1429500Y883000D02*
Y885698D01*
D17*
X1138750Y1013000D02*
D03*
X1155250D02*
D03*
X1093872Y945771D02*
D03*
X1077372D02*
D03*
D18*
X1029000Y984250D02*
D03*
Y967750D02*
D03*
X1327000Y1009001D02*
D03*
Y992501D02*
D03*
X1051000Y903000D02*
D03*
Y886500D02*
D03*
D19*
X853000Y947000D02*
D03*
Y957000D02*
D03*
X1329000Y966000D02*
D03*
Y976000D02*
D03*
X1056000Y1016000D02*
D03*
Y1006000D02*
D03*
D20*
X1056000Y921000D02*
D03*
X1046000D02*
D03*
X1182000Y1014000D02*
D03*
X1172000D02*
D03*
D22*
X1049873Y960648D02*
D03*
X1050127Y985352D02*
D03*
X877000Y938000D02*
D03*
X877254Y962704D02*
D03*
X902127Y963352D02*
D03*
X901873Y938648D02*
D03*
D24*
X1315000Y965250D02*
D03*
Y976000D02*
D03*
D25*
X1426662Y899000D02*
D03*
X1437500D02*
D03*
X1118584Y1014000D02*
D03*
X1108000D02*
D03*
X1196750Y1014000D02*
D03*
X1207500D02*
D03*
X1079500Y928000D02*
D03*
X1090000D02*
D03*
D31*
X1442500Y883000D02*
D03*
X1429500D02*
D03*
D56*
X850800Y917000D02*
D03*
X876454D02*
D03*
X902108D02*
D03*
X853584Y986000D02*
D03*
X879492D02*
D03*
X1513654Y988000D02*
D03*
X1514654Y909400D02*
D03*
D57*
X927762Y917000D02*
D03*
X905400Y986000D02*
D03*
X1488000Y988000D02*
D03*
X1489000Y909400D02*
D03*
D58*
X855000Y1011400D02*
D03*
X905400D02*
D03*
X880400D02*
D03*
X1488000Y962600D02*
D03*
X1513000D02*
D03*
X1489000Y884000D02*
D03*
X1514000D02*
D03*
D59*
X1442000Y950000D02*
D03*
X954000Y977000D02*
D03*
D60*
X1225620Y1000506D02*
D03*
X1031350Y1012500D02*
D03*
X1387991Y997204D02*
D03*
X1392790Y1005840D02*
D03*
X1374000Y1015000D02*
D03*
X921000Y963000D02*
D03*
X1005000Y888871D02*
D03*
X1038000Y884000D02*
D03*
X1066692Y951084D02*
D03*
X1126000Y1005000D02*
D03*
X1114100Y1002000D02*
D03*
X1161249Y1001121D02*
D03*
X1150200Y999949D02*
D03*
X1138750Y1003000D02*
D03*
X1298000Y904000D02*
D03*
X1305000Y919000D02*
D03*
X1276000Y908000D02*
D03*
X1225000Y914000D02*
D03*
X1238000Y907542D02*
D03*
X1212000Y909000D02*
D03*
X1176400Y1005441D02*
D03*
X1160178Y968928D02*
D03*
X1275000Y1006000D02*
D03*
X980000Y930000D02*
D03*
X1049000Y974000D02*
D03*
X1044000Y932000D02*
D03*
X1025000Y940000D02*
D03*
X1025657Y955900D02*
D03*
X1114050Y948456D02*
D03*
X1170324Y928231D02*
D03*
X1280922Y937600D02*
D03*
X1276000Y963000D02*
D03*
X1303000Y965000D02*
D03*
X1315000Y955000D02*
D03*
X1305776Y1003224D02*
D03*
X932000Y1017000D02*
D03*
X988548Y887730D02*
D03*
X1246124Y928116D02*
D03*
X1314958Y990854D02*
D03*
X1344676Y891032D02*
D03*
X1325372Y910336D02*
D03*
X1285494Y925830D02*
D03*
X1260602Y913384D02*
D03*
X1430528Y926084D02*
D03*
X1478788Y930148D02*
D03*
X1170178Y905256D02*
D03*
X1144270Y964946D02*
D03*
X1369666Y971625D02*
D03*
X1125220Y950214D02*
D03*
X1461008Y988568D02*
D03*
X1429115Y981964D02*
D03*
X1438000Y983420D02*
D03*
X1462786Y971296D02*
D03*
X1425956Y999236D02*
D03*
X1441902Y916369D02*
D03*
X1297641Y883420D02*
D03*
X1126744Y969264D02*
D03*
X1014476Y960374D02*
D03*
X1369920Y952000D02*
D03*
X1345928Y909711D02*
D03*
X1362710Y995172D02*
D03*
X987298Y990500D02*
D03*
X995141Y908304D02*
D03*
X1419080Y921160D02*
D03*
X1419098Y911098D02*
D03*
X951420Y1012000D02*
D03*
D61*
X1130000Y919988D02*
D03*
D62*
X1081000Y967000D02*
D03*
Y1007000D02*
D03*
D63*
X1118450Y985750D02*
D03*
X1131150D02*
D03*
X1143850D02*
D03*
X1156550D02*
D03*
X1169250D02*
D03*
X1181950D02*
D03*
X1194650D02*
D03*
X1207350D02*
D03*
X1220050D02*
D03*
X1232750D02*
D03*
X1245450D02*
D03*
X1258150D02*
D03*
X1270850D02*
D03*
X1283550D02*
D03*
X1118450Y890250D02*
D03*
X1131150D02*
D03*
X1143850D02*
D03*
X1156550D02*
D03*
X1169250D02*
D03*
X1181950D02*
D03*
X1194650D02*
D03*
X1207350D02*
D03*
X1220050D02*
D03*
X1232750D02*
D03*
X1245450D02*
D03*
X1258150D02*
D03*
X1270850D02*
D03*
X1283550D02*
D03*
D64*
X946000Y920000D02*
D03*
Y907500D02*
D03*
X946000Y895000D02*
D03*
Y882500D02*
D03*
D65*
X986000Y945000D02*
D03*
X998500D02*
D03*
X974001Y945000D02*
D03*
X961501D02*
D03*
D66*
X1075250Y908000D02*
D03*
X1092750D02*
D03*
X1084000Y884000D02*
D03*
D67*
X1406500Y1011700D02*
D03*
Y999000D02*
D03*
Y986300D02*
D03*
X1350000Y1011700D02*
D03*
Y999000D02*
D03*
Y986300D02*
D03*
X1406500Y973600D02*
D03*
D68*
X1350000D02*
D03*
D69*
X1315221Y888500D02*
D03*
X1315971Y933500D02*
D03*
D70*
X1384000Y911000D02*
D03*
D71*
X965500Y883250D02*
D03*
Y889750D02*
D03*
Y896250D02*
D03*
Y902750D02*
D03*
Y909250D02*
D03*
Y915750D02*
D03*
Y922250D02*
D03*
Y928750D02*
D03*
X1024500Y883250D02*
D03*
Y889750D02*
D03*
Y896250D02*
D03*
Y902750D02*
D03*
Y909250D02*
D03*
Y915750D02*
D03*
Y922250D02*
D03*
Y928750D02*
D03*
M02*
