G04*
G04 #@! TF.GenerationSoftware,Altium Limited,Altium Designer,22.6.1 (34)*
G04*
G04 Layer_Color=8388736*
%FSLAX44Y44*%
%MOMM*%
G71*
G04*
G04 #@! TF.SameCoordinates,34CEF4AE-E416-4031-B028-95ACDE368F96*
G04*
G04*
G04 #@! TF.FilePolarity,Negative*
G04*
G01*
G75*
%ADD33R,0.8532X0.8032*%
%ADD34R,1.3032X1.3032*%
%ADD35R,1.3032X1.3032*%
%ADD36R,0.7032X0.7032*%
%ADD37R,0.7032X0.7032*%
%ADD38R,2.6032X4.2032*%
%ADD39R,1.8032X0.9532*%
%ADD40R,1.4032X1.0032*%
%ADD41R,0.8032X0.8032*%
%ADD42R,0.8032X0.8032*%
%ADD43R,1.5032X2.6032*%
%ADD44R,1.0032X1.4032*%
%ADD45R,1.1032X1.0032*%
%ADD46R,1.2032X1.2032*%
%ADD47O,2.1032X0.9032*%
%ADD48R,0.5032X1.0032*%
%ADD49R,2.1532X0.8532*%
%ADD50O,2.3032X2.6032*%
%ADD51R,2.3032X2.6032*%
%ADD52C,1.3032*%
%ADD53C,4.2032*%
%ADD54C,0.9652*%
%ADD55C,1.4732*%
D33*
X1388000Y1015000D02*
D03*
X1378000Y995000D02*
D03*
X1397000D02*
D03*
D34*
X1056750Y970000D02*
D03*
X1073250D02*
D03*
X1178750Y883000D02*
D03*
X1195250D02*
D03*
X1140750D02*
D03*
X1157250D02*
D03*
X962000Y1012000D02*
D03*
X978500D02*
D03*
D35*
X1462000Y908750D02*
D03*
Y925250D02*
D03*
D36*
X1414000Y1005000D02*
D03*
Y995000D02*
D03*
X1077000Y1014000D02*
D03*
Y1004000D02*
D03*
X1063000Y1014000D02*
D03*
Y1004000D02*
D03*
D37*
X1074000Y989000D02*
D03*
X1064000D02*
D03*
X985000Y973000D02*
D03*
X995000D02*
D03*
X1218000Y1015000D02*
D03*
X1228000D02*
D03*
D38*
X1225000Y939000D02*
D03*
X1349000D02*
D03*
D39*
X1407000Y952000D02*
D03*
X1406746Y976704D02*
D03*
X1382746Y976704D02*
D03*
X1383000Y952000D02*
D03*
D40*
X1019000Y993000D02*
D03*
Y1012000D02*
D03*
X1044000Y1012500D02*
D03*
Y993500D02*
D03*
D41*
X1461000Y881162D02*
D03*
Y892000D02*
D03*
D42*
X1407162Y931000D02*
D03*
X1418000D02*
D03*
X1358750Y1015000D02*
D03*
X1348000D02*
D03*
X1332750Y1015000D02*
D03*
X1322000D02*
D03*
X1012500Y972000D02*
D03*
X1023250D02*
D03*
X1453000Y979000D02*
D03*
X1463500D02*
D03*
D43*
X1381000Y899000D02*
D03*
X1441000D02*
D03*
D44*
X1099570Y883000D02*
D03*
X1122430D02*
D03*
D45*
X997000Y1011500D02*
D03*
Y990500D02*
D03*
D46*
X1438000Y1011000D02*
D03*
Y993500D02*
D03*
X1462000Y1002250D02*
D03*
D47*
X1068500Y897950D02*
D03*
Y910650D02*
D03*
Y923350D02*
D03*
Y936050D02*
D03*
X963500D02*
D03*
Y923350D02*
D03*
Y910650D02*
D03*
Y897950D02*
D03*
D48*
X1392500Y932000D02*
D03*
X1379500D02*
D03*
D49*
X1192500Y1016000D02*
D03*
Y1003300D02*
D03*
Y990600D02*
D03*
Y977900D02*
D03*
Y965200D02*
D03*
Y952500D02*
D03*
Y939800D02*
D03*
Y927100D02*
D03*
Y914400D02*
D03*
Y901700D02*
D03*
X1098000D02*
D03*
Y914400D02*
D03*
Y927100D02*
D03*
Y939800D02*
D03*
Y952500D02*
D03*
Y965200D02*
D03*
Y977900D02*
D03*
Y990600D02*
D03*
Y1003300D02*
D03*
Y1016000D02*
D03*
D50*
X850800Y917000D02*
D03*
X876454D02*
D03*
X902108D02*
D03*
X853584Y986000D02*
D03*
X879492D02*
D03*
X1513654Y988000D02*
D03*
X1514654Y909400D02*
D03*
D51*
X927762Y917000D02*
D03*
X905400Y986000D02*
D03*
X1488000Y988000D02*
D03*
X1489000Y909400D02*
D03*
D52*
X855000Y1011400D02*
D03*
X905400D02*
D03*
X880400D02*
D03*
X1488000Y962600D02*
D03*
X1513000D02*
D03*
X1489000Y884000D02*
D03*
X1514000D02*
D03*
D53*
X1442000Y950000D02*
D03*
X954000Y977000D02*
D03*
D54*
X1225620Y1000506D02*
D03*
X1031350Y1012500D02*
D03*
X1387991Y997204D02*
D03*
X1392790Y1005840D02*
D03*
X1374000Y1015000D02*
D03*
X1007000Y1001000D02*
D03*
X1066692Y951084D02*
D03*
X1126000Y1005000D02*
D03*
X1114100Y1002000D02*
D03*
X1161249Y1001121D02*
D03*
X1150200Y999949D02*
D03*
X1138750Y1003000D02*
D03*
X1298000Y904000D02*
D03*
X1276000Y908000D02*
D03*
X1238000Y907542D02*
D03*
X1176400Y1005441D02*
D03*
X1275000Y1006000D02*
D03*
X980000Y930000D02*
D03*
X1049000Y974000D02*
D03*
X1044000Y932000D02*
D03*
X1025000Y940000D02*
D03*
X1025657Y955900D02*
D03*
X1114050Y948456D02*
D03*
X1170324Y928231D02*
D03*
X1280922Y937600D02*
D03*
X1276000Y963000D02*
D03*
X1303000Y965000D02*
D03*
X1315000Y955000D02*
D03*
X1305776Y1003224D02*
D03*
X932000Y1017000D02*
D03*
X988548Y887730D02*
D03*
X1246124Y928116D02*
D03*
X1314958Y990854D02*
D03*
X1344676Y891032D02*
D03*
X1325372Y910336D02*
D03*
X1285494Y925830D02*
D03*
X1260602Y913384D02*
D03*
X1430528Y926084D02*
D03*
X1478788Y930148D02*
D03*
X1170178Y905256D02*
D03*
X1144270Y964946D02*
D03*
X1369666Y971625D02*
D03*
X1125220Y950214D02*
D03*
X1461008Y988568D02*
D03*
X1429115Y981964D02*
D03*
X1438000Y983420D02*
D03*
X1462786Y971296D02*
D03*
X1425956Y999236D02*
D03*
X1441902Y916369D02*
D03*
X1297641Y883420D02*
D03*
X1126744Y969264D02*
D03*
X1014476Y960374D02*
D03*
X1126851Y918464D02*
D03*
X1369920Y952000D02*
D03*
X1345928Y909711D02*
D03*
X1362710Y995172D02*
D03*
X987298Y990500D02*
D03*
X995141Y908304D02*
D03*
X1419080Y921160D02*
D03*
X1419098Y911098D02*
D03*
X951420Y1012000D02*
D03*
D55*
X1217000Y985000D02*
D03*
X1037000Y899000D02*
D03*
X985000Y952000D02*
D03*
M02*
