G04*
G04 #@! TF.GenerationSoftware,Altium Limited,Altium Designer,22.6.1 (34)*
G04*
G04 Layer_Color=16711935*
%FSLAX44Y44*%
%MOMM*%
G71*
G04*
G04 #@! TF.SameCoordinates,68862BAA-0075-4294-9CF4-793137098D5D*
G04*
G04*
G04 #@! TF.FilePolarity,Negative*
G04*
G01*
G75*
%ADD34R,1.3032X1.3032*%
%ADD35R,1.3032X1.3032*%
%ADD36R,0.7032X0.7032*%
%ADD37R,0.7032X0.7032*%
%ADD39R,1.8032X0.9532*%
%ADD41R,0.8032X0.8032*%
%ADD42R,0.8032X0.8032*%
%ADD48R,0.5032X1.0032*%
%ADD50O,2.3032X2.6032*%
%ADD51R,2.3032X2.6032*%
%ADD52C,1.3032*%
%ADD53C,4.2032*%
%ADD54C,0.9652*%
%ADD55C,1.4732*%
%ADD72R,2.6032X2.2032*%
%ADD73O,0.8532X2.2532*%
%ADD74R,1.0032X0.5532*%
%ADD75R,0.5532X1.0032*%
%ADD76R,1.2032X1.2032*%
%ADD77O,1.9812X0.9144*%
%ADD78R,1.9812X0.9144*%
%ADD79R,2.7032X1.8032*%
%ADD80R,6.2032X6.0032*%
%ADD81O,1.3032X0.5832*%
D34*
X1138750Y1013000D02*
D03*
X1155250D02*
D03*
X1093872Y945771D02*
D03*
X1077372D02*
D03*
D35*
X1029000Y984250D02*
D03*
Y967750D02*
D03*
X1327000Y1009001D02*
D03*
Y992501D02*
D03*
X1051000Y903000D02*
D03*
Y886500D02*
D03*
D36*
X853000Y947000D02*
D03*
Y957000D02*
D03*
X1329000Y966000D02*
D03*
Y976000D02*
D03*
X1056000Y1016000D02*
D03*
Y1006000D02*
D03*
D37*
X1056000Y921000D02*
D03*
X1046000D02*
D03*
X1182000Y1014000D02*
D03*
X1172000D02*
D03*
D39*
X1049873Y960648D02*
D03*
X1050127Y985352D02*
D03*
X877000Y938000D02*
D03*
X877254Y962704D02*
D03*
X902127Y963352D02*
D03*
X901873Y938648D02*
D03*
D41*
X1315000Y965250D02*
D03*
Y976000D02*
D03*
D42*
X1426662Y899000D02*
D03*
X1437500D02*
D03*
X1118584Y1014000D02*
D03*
X1108000D02*
D03*
X1196750Y1014000D02*
D03*
X1207500D02*
D03*
X1079500Y928000D02*
D03*
X1090000D02*
D03*
D48*
X1442500Y883000D02*
D03*
X1429500D02*
D03*
D50*
X850800Y917000D02*
D03*
X876454D02*
D03*
X902108D02*
D03*
X853584Y986000D02*
D03*
X879492D02*
D03*
X1513654Y988000D02*
D03*
X1514654Y909400D02*
D03*
D51*
X927762Y917000D02*
D03*
X905400Y986000D02*
D03*
X1488000Y988000D02*
D03*
X1489000Y909400D02*
D03*
D52*
X855000Y1011400D02*
D03*
X905400D02*
D03*
X880400D02*
D03*
X1488000Y962600D02*
D03*
X1513000D02*
D03*
X1489000Y884000D02*
D03*
X1514000D02*
D03*
D53*
X1442000Y950000D02*
D03*
X954000Y977000D02*
D03*
D54*
X1225620Y1000506D02*
D03*
X1031350Y1012500D02*
D03*
X1387991Y997204D02*
D03*
X1392790Y1005840D02*
D03*
X1374000Y1015000D02*
D03*
X921000Y963000D02*
D03*
X1005000Y888871D02*
D03*
X1038000Y884000D02*
D03*
X1066692Y951084D02*
D03*
X1126000Y1005000D02*
D03*
X1114100Y1002000D02*
D03*
X1161249Y1001121D02*
D03*
X1150200Y999949D02*
D03*
X1138750Y1003000D02*
D03*
X1298000Y904000D02*
D03*
X1305000Y919000D02*
D03*
X1276000Y908000D02*
D03*
X1225000Y914000D02*
D03*
X1238000Y907542D02*
D03*
X1212000Y909000D02*
D03*
X1176400Y1005441D02*
D03*
X1160178Y968928D02*
D03*
X1275000Y1006000D02*
D03*
X980000Y930000D02*
D03*
X1049000Y974000D02*
D03*
X1044000Y932000D02*
D03*
X1025000Y940000D02*
D03*
X1025657Y955900D02*
D03*
X1114050Y948456D02*
D03*
X1170324Y928231D02*
D03*
X1280922Y937600D02*
D03*
X1276000Y963000D02*
D03*
X1303000Y965000D02*
D03*
X1315000Y955000D02*
D03*
X1305776Y1003224D02*
D03*
X932000Y1017000D02*
D03*
X988548Y887730D02*
D03*
X1246124Y928116D02*
D03*
X1314958Y990854D02*
D03*
X1344676Y891032D02*
D03*
X1325372Y910336D02*
D03*
X1285494Y925830D02*
D03*
X1260602Y913384D02*
D03*
X1430528Y926084D02*
D03*
X1478788Y930148D02*
D03*
X1170178Y905256D02*
D03*
X1144270Y964946D02*
D03*
X1369666Y971625D02*
D03*
X1125220Y950214D02*
D03*
X1461008Y988568D02*
D03*
X1429115Y981964D02*
D03*
X1438000Y983420D02*
D03*
X1462786Y971296D02*
D03*
X1425956Y999236D02*
D03*
X1441902Y916369D02*
D03*
X1297641Y883420D02*
D03*
X1126744Y969264D02*
D03*
X1014476Y960374D02*
D03*
X1369920Y952000D02*
D03*
X1345928Y909711D02*
D03*
X1362710Y995172D02*
D03*
X987298Y990500D02*
D03*
X995141Y908304D02*
D03*
X1419080Y921160D02*
D03*
X1419098Y911098D02*
D03*
X951420Y1012000D02*
D03*
D55*
X1130000Y919988D02*
D03*
D72*
X1081000Y967000D02*
D03*
Y1007000D02*
D03*
D73*
X1118450Y985750D02*
D03*
X1131150D02*
D03*
X1143850D02*
D03*
X1156550D02*
D03*
X1169250D02*
D03*
X1181950D02*
D03*
X1194650D02*
D03*
X1207350D02*
D03*
X1220050D02*
D03*
X1232750D02*
D03*
X1245450D02*
D03*
X1258150D02*
D03*
X1270850D02*
D03*
X1283550D02*
D03*
X1118450Y890250D02*
D03*
X1131150D02*
D03*
X1143850D02*
D03*
X1156550D02*
D03*
X1169250D02*
D03*
X1181950D02*
D03*
X1194650D02*
D03*
X1207350D02*
D03*
X1220050D02*
D03*
X1232750D02*
D03*
X1245450D02*
D03*
X1258150D02*
D03*
X1270850D02*
D03*
X1283550D02*
D03*
D74*
X946000Y920000D02*
D03*
Y907500D02*
D03*
X946000Y895000D02*
D03*
Y882500D02*
D03*
D75*
X986000Y945000D02*
D03*
X998500D02*
D03*
X974001Y945000D02*
D03*
X961501D02*
D03*
D76*
X1075250Y908000D02*
D03*
X1092750D02*
D03*
X1084000Y884000D02*
D03*
D77*
X1406500Y1011700D02*
D03*
Y999000D02*
D03*
Y986300D02*
D03*
X1350000Y1011700D02*
D03*
Y999000D02*
D03*
Y986300D02*
D03*
X1406500Y973600D02*
D03*
D78*
X1350000D02*
D03*
D79*
X1315221Y888500D02*
D03*
X1315971Y933500D02*
D03*
D80*
X1384000Y911000D02*
D03*
D81*
X965500Y883250D02*
D03*
Y889750D02*
D03*
Y896250D02*
D03*
Y902750D02*
D03*
Y909250D02*
D03*
Y915750D02*
D03*
Y922250D02*
D03*
Y928750D02*
D03*
X1024500Y883250D02*
D03*
Y889750D02*
D03*
Y896250D02*
D03*
Y902750D02*
D03*
Y909250D02*
D03*
Y915750D02*
D03*
Y922250D02*
D03*
Y928750D02*
D03*
M02*
