G04*
G04 #@! TF.GenerationSoftware,Altium Limited,Altium Designer,22.6.1 (34)*
G04*
G04 Layer_Color=16711935*
%FSLAX44Y44*%
%MOMM*%
G71*
G04*
G04 #@! TF.SameCoordinates,499910AD-9B8C-4153-9010-BA54DE613A27*
G04*
G04*
G04 #@! TF.FilePolarity,Negative*
G04*
G01*
G75*
%ADD33R,1.2640X1.2640*%
%ADD34R,1.2640X1.2640*%
%ADD35R,0.6640X0.6640*%
%ADD36R,0.6640X0.6640*%
%ADD38R,1.7640X0.9140*%
%ADD40R,0.7640X0.7640*%
%ADD42R,0.5140X0.9640*%
%ADD49R,2.2640X2.5640*%
%ADD50O,2.2640X2.5640*%
%ADD51C,1.2640*%
%ADD52C,4.1640*%
%ADD53C,0.6640*%
%ADD54C,0.9640*%
%ADD55C,0.7032*%
%ADD56C,1.1640*%
%ADD57C,0.6240*%
%ADD67R,2.5640X2.1640*%
%ADD68O,0.8140X2.2140*%
%ADD69R,0.9640X0.5140*%
%ADD70R,1.1640X1.1640*%
%ADD71O,1.9420X0.8752*%
%ADD72R,1.9420X0.8752*%
%ADD73R,2.6640X1.7640*%
%ADD74R,6.1640X5.9640*%
%ADD75O,1.2640X0.5440*%
%ADD76R,1.1640X0.6640*%
D33*
X1089750Y944750D02*
D03*
X1073250D02*
D03*
X1134750Y1012500D02*
D03*
X1151250D02*
D03*
D34*
X1009142Y984880D02*
D03*
Y968380D02*
D03*
X1324000Y1009250D02*
D03*
Y992750D02*
D03*
X1050000Y901000D02*
D03*
Y884500D02*
D03*
D35*
X853000Y947000D02*
D03*
Y957000D02*
D03*
X1329000Y966000D02*
D03*
Y976000D02*
D03*
X1053592Y1001682D02*
D03*
Y1011682D02*
D03*
X1055370Y968916D02*
D03*
Y978916D02*
D03*
X1451000Y884750D02*
D03*
Y894750D02*
D03*
X1315000Y975750D02*
D03*
Y965750D02*
D03*
X1038606Y1001428D02*
D03*
Y1011428D02*
D03*
D36*
X1044000Y919000D02*
D03*
X1054000D02*
D03*
X1106500Y1013000D02*
D03*
X1116500D02*
D03*
D38*
X877127Y963602D02*
D03*
X876873Y938898D02*
D03*
X901873Y939148D02*
D03*
X902127Y963852D02*
D03*
D40*
X1092500Y928000D02*
D03*
X1082000D02*
D03*
D42*
X930500Y884000D02*
D03*
X943000D02*
D03*
X998500Y945000D02*
D03*
X986000D02*
D03*
X974001Y945000D02*
D03*
X961501D02*
D03*
X1175358Y1013714D02*
D03*
X1187858D02*
D03*
D49*
X927762Y917000D02*
D03*
X905400Y986000D02*
D03*
X1488000Y988000D02*
D03*
X1489000Y909400D02*
D03*
D50*
X902108Y917000D02*
D03*
X876454D02*
D03*
X850800D02*
D03*
X879492Y986000D02*
D03*
X853584D02*
D03*
X1513654Y988000D02*
D03*
X1514654Y909400D02*
D03*
D51*
X880400Y1011400D02*
D03*
X905400D02*
D03*
X855000D02*
D03*
X1488000Y962600D02*
D03*
X1513000D02*
D03*
X1489000Y884000D02*
D03*
X1514000D02*
D03*
D52*
X1442000Y950000D02*
D03*
X949000Y977000D02*
D03*
D53*
X1055402Y1002222D02*
D03*
X1024382Y981202D02*
D03*
X1114044Y1001522D02*
D03*
X1048512Y933704D02*
D03*
X924306Y964438D02*
D03*
X1118250Y965000D02*
D03*
X1024525Y949102D02*
D03*
X1014570Y943380D02*
D03*
X1038606Y965710D02*
D03*
X1037082Y975968D02*
D03*
X1174250Y936500D02*
D03*
X1162812Y1000252D02*
D03*
X1209294Y983488D02*
D03*
X1211250Y967750D02*
D03*
X1187858Y1013714D02*
D03*
X977138Y967232D02*
D03*
X1307000Y992152D02*
D03*
X1346750Y941750D02*
D03*
X1161430Y955154D02*
D03*
X1427734Y978916D02*
D03*
X1424250Y998750D02*
D03*
X1395750Y891250D02*
D03*
X1396500Y901750D02*
D03*
X1373750Y918500D02*
D03*
X1382750D02*
D03*
X1391750D02*
D03*
X1400750D02*
D03*
X1409750Y891500D02*
D03*
Y900500D02*
D03*
Y909500D02*
D03*
Y918500D02*
D03*
X1049250Y901750D02*
D03*
X986000Y945250D02*
D03*
X931750Y1010000D02*
D03*
X1150250Y1000750D02*
D03*
X1116750Y1013000D02*
D03*
X1175250Y1014500D02*
D03*
X1145750Y955500D02*
D03*
X1133000Y949750D02*
D03*
X1126521Y935298D02*
D03*
X1156250Y968250D02*
D03*
X1421500Y930750D02*
D03*
X1219750Y907630D02*
D03*
X1232722D02*
D03*
X1073000Y946750D02*
D03*
X1116750Y918750D02*
D03*
X1169250Y903940D02*
D03*
X1170164Y967086D02*
D03*
X1244250Y918000D02*
D03*
X1303000Y965000D02*
D03*
X1244614Y907990D02*
D03*
X1101750Y883750D02*
D03*
X1268250Y907500D02*
D03*
X1284750Y909500D02*
D03*
X1464000Y908750D02*
D03*
X1463500Y882412D02*
D03*
X986500Y885000D02*
D03*
X1380998Y954176D02*
D03*
X1003182Y889992D02*
D03*
X984750Y907250D02*
D03*
X1011250Y911500D02*
D03*
X1319056Y904020D02*
D03*
X1407000Y952000D02*
D03*
X1444250Y906000D02*
D03*
X1344676Y891032D02*
D03*
X1292000Y937000D02*
D03*
X1276000Y963000D02*
D03*
X1282000Y1009000D02*
D03*
X1329000Y954024D02*
D03*
D54*
X1009396Y1012698D02*
D03*
X990346Y992886D02*
D03*
X955548Y1010158D02*
D03*
X1462024Y990346D02*
D03*
X1464818Y967486D02*
D03*
D55*
X1037341Y929659D02*
D03*
X1432750Y922000D02*
D03*
D56*
X1132586Y916884D02*
D03*
X1315971Y933500D02*
D03*
X1315221Y888500D02*
D03*
D57*
X1134250Y1013500D02*
D03*
D67*
X1080750Y1009500D02*
D03*
Y969500D02*
D03*
D68*
X1283550Y890250D02*
D03*
X1270850D02*
D03*
X1258150D02*
D03*
X1245450D02*
D03*
X1232750D02*
D03*
X1220050D02*
D03*
X1207350D02*
D03*
X1194650D02*
D03*
X1181950D02*
D03*
X1169250D02*
D03*
X1156550D02*
D03*
X1143850D02*
D03*
X1131150D02*
D03*
X1118450D02*
D03*
X1283550Y985750D02*
D03*
X1270850D02*
D03*
X1258150D02*
D03*
X1245450D02*
D03*
X1232750D02*
D03*
X1220050D02*
D03*
X1207350D02*
D03*
X1194650D02*
D03*
X1181950D02*
D03*
X1169250D02*
D03*
X1156550D02*
D03*
X1143850D02*
D03*
X1131150D02*
D03*
X1118450D02*
D03*
D69*
X949000Y908500D02*
D03*
Y921000D02*
D03*
X1037082Y975968D02*
D03*
Y988468D02*
D03*
D70*
X1075250Y908000D02*
D03*
X1092750D02*
D03*
X1084000Y884000D02*
D03*
D71*
X1406500Y973600D02*
D03*
X1350000Y986300D02*
D03*
Y999000D02*
D03*
Y1011700D02*
D03*
X1406500Y986300D02*
D03*
Y999000D02*
D03*
Y1011700D02*
D03*
D72*
X1350000Y973600D02*
D03*
D73*
X1315971Y933500D02*
D03*
X1315221Y888500D02*
D03*
D74*
X1384000Y911000D02*
D03*
D75*
X1024500Y928750D02*
D03*
Y922250D02*
D03*
Y915750D02*
D03*
Y909250D02*
D03*
Y902750D02*
D03*
Y896250D02*
D03*
Y889750D02*
D03*
Y883250D02*
D03*
X965500Y928750D02*
D03*
Y922250D02*
D03*
Y915750D02*
D03*
Y909250D02*
D03*
Y902750D02*
D03*
Y896250D02*
D03*
Y889750D02*
D03*
Y883250D02*
D03*
D76*
X1432000Y896000D02*
D03*
Y883000D02*
D03*
M02*
