G04*
G04 #@! TF.GenerationSoftware,Altium Limited,Altium Designer,22.6.1 (34)*
G04*
G04 Layer_Color=8388736*
%FSLAX44Y44*%
%MOMM*%
G71*
G04*
G04 #@! TF.SameCoordinates,33BF7DE0-2247-4683-9E98-F91A82CD5A39*
G04*
G04*
G04 #@! TF.FilePolarity,Negative*
G04*
G01*
G75*
%ADD33R,1.4640X2.5640*%
%ADD34R,1.2640X1.2640*%
%ADD35R,1.2640X1.2640*%
%ADD36R,2.5640X4.1640*%
%ADD37R,0.8140X0.7640*%
%ADD38R,1.7640X0.9140*%
%ADD39R,0.6640X0.6640*%
%ADD40R,0.6640X0.6640*%
%ADD41R,1.3640X0.9640*%
%ADD42R,0.7640X0.7640*%
%ADD43R,0.7640X0.7640*%
%ADD44R,0.9640X1.3640*%
%ADD45R,0.9640X1.0640*%
%ADD46R,1.1640X1.1640*%
%ADD47O,2.0640X0.8640*%
%ADD48R,0.4640X0.9640*%
%ADD49R,2.1140X0.8140*%
%ADD50R,2.2640X2.5640*%
%ADD51O,2.2640X2.5640*%
%ADD52C,1.2640*%
%ADD53C,4.1640*%
%ADD54C,0.6640*%
%ADD55C,0.6240*%
%ADD56C,0.8640*%
%ADD57C,0.7032*%
D33*
X1381000Y899000D02*
D03*
X1441000D02*
D03*
D34*
X1056750Y970000D02*
D03*
X1073250D02*
D03*
X1195250Y884250D02*
D03*
X1178750D02*
D03*
X1140750Y884500D02*
D03*
X1157250D02*
D03*
X972500Y1010750D02*
D03*
X956000D02*
D03*
D35*
X1463750Y908250D02*
D03*
Y924750D02*
D03*
D36*
X1349000Y939000D02*
D03*
X1225000D02*
D03*
D37*
X1396500Y993750D02*
D03*
X1377500D02*
D03*
X1387500Y1013750D02*
D03*
D38*
X1014500Y1013000D02*
D03*
X1014754Y988296D02*
D03*
X1407000Y952000D02*
D03*
X1406746Y976704D02*
D03*
D39*
X1414000Y1005000D02*
D03*
Y995000D02*
D03*
X1077000Y1014000D02*
D03*
Y1004000D02*
D03*
X1063000Y1014000D02*
D03*
Y1004000D02*
D03*
D40*
X1074000Y989250D02*
D03*
X1064000D02*
D03*
X980500Y968250D02*
D03*
X990500D02*
D03*
X1218000Y1015000D02*
D03*
X1228000D02*
D03*
D41*
X1381250Y974000D02*
D03*
Y955000D02*
D03*
X1044000Y1012500D02*
D03*
Y993500D02*
D03*
D42*
X1463500Y882412D02*
D03*
Y893250D02*
D03*
D43*
X1407162Y931000D02*
D03*
X1418000D02*
D03*
X1358750Y1013750D02*
D03*
X1348000D02*
D03*
X1332750Y1015000D02*
D03*
X1322000D02*
D03*
X1011000Y972000D02*
D03*
X1021750D02*
D03*
X1453000Y979000D02*
D03*
X1463500D02*
D03*
D44*
X1245640Y1011000D02*
D03*
X1268500D02*
D03*
D45*
X1120000Y883750D02*
D03*
X1099000D02*
D03*
D46*
X1438000Y1012000D02*
D03*
Y994500D02*
D03*
X1462000Y1003250D02*
D03*
D47*
X1068500Y897950D02*
D03*
Y910650D02*
D03*
Y923350D02*
D03*
Y936050D02*
D03*
X963500D02*
D03*
Y923350D02*
D03*
Y910650D02*
D03*
Y897950D02*
D03*
D48*
X1392500Y932000D02*
D03*
X1379500D02*
D03*
D49*
X1192000Y1013750D02*
D03*
Y1001050D02*
D03*
Y988350D02*
D03*
Y975650D02*
D03*
Y962950D02*
D03*
Y950250D02*
D03*
Y937550D02*
D03*
Y924850D02*
D03*
Y912150D02*
D03*
Y899450D02*
D03*
X1097500D02*
D03*
Y912150D02*
D03*
Y924850D02*
D03*
Y937550D02*
D03*
Y950250D02*
D03*
Y962950D02*
D03*
Y975650D02*
D03*
Y988350D02*
D03*
Y1001050D02*
D03*
Y1013750D02*
D03*
D50*
X927762Y917000D02*
D03*
X905400Y986000D02*
D03*
X1488000Y988000D02*
D03*
X1489000Y909400D02*
D03*
D51*
X902108Y917000D02*
D03*
X876454D02*
D03*
X850800D02*
D03*
X853584Y986000D02*
D03*
X879492D02*
D03*
X1513654Y988000D02*
D03*
X1514654Y909400D02*
D03*
D52*
X855000Y1011400D02*
D03*
X905400D02*
D03*
X880400D02*
D03*
X1488000Y962600D02*
D03*
X1513000D02*
D03*
X1489000Y884000D02*
D03*
X1514000D02*
D03*
D53*
X1442000Y950000D02*
D03*
X949000Y977000D02*
D03*
D54*
X980500Y968250D02*
D03*
X999500Y976750D02*
D03*
X1307000Y992000D02*
D03*
X1057000Y981750D02*
D03*
X1024000Y950218D02*
D03*
X1395750Y891250D02*
D03*
X1396500Y901750D02*
D03*
X1373750Y918500D02*
D03*
X1382750D02*
D03*
X1391750D02*
D03*
X1400750D02*
D03*
X1409750Y891500D02*
D03*
Y900500D02*
D03*
Y909500D02*
D03*
Y918500D02*
D03*
X1049250Y901750D02*
D03*
X986000Y945250D02*
D03*
X931750Y1010000D02*
D03*
X1150250Y1000750D02*
D03*
X1164500Y1003250D02*
D03*
X1116750Y1013000D02*
D03*
X1114500Y1002750D02*
D03*
X1175250Y1014500D02*
D03*
X1145750Y955500D02*
D03*
X1133000Y949750D02*
D03*
X1118250Y965000D02*
D03*
X1126521Y935298D02*
D03*
X1156250Y968250D02*
D03*
X1174250Y936500D02*
D03*
X1421500Y930750D02*
D03*
X1219750Y907630D02*
D03*
X1232722D02*
D03*
X1073000Y946750D02*
D03*
X1116750Y918750D02*
D03*
X1226500Y1002750D02*
D03*
X1424250Y998750D02*
D03*
X1169250Y903940D02*
D03*
X1170164Y967086D02*
D03*
X1244250Y918000D02*
D03*
X1303000Y965000D02*
D03*
X1244614Y907990D02*
D03*
X1101750Y883750D02*
D03*
X1268250Y907500D02*
D03*
X1284750Y909500D02*
D03*
X1464000Y908750D02*
D03*
X1463500Y882412D02*
D03*
X1210077Y1003081D02*
D03*
X1218000Y1015000D02*
D03*
X986500Y885000D02*
D03*
X1381250Y955000D02*
D03*
X1047500Y932250D02*
D03*
X1346750Y941750D02*
D03*
X1003182Y889992D02*
D03*
X984750Y907250D02*
D03*
X1011250Y911500D02*
D03*
X1315971Y933500D02*
D03*
X1319056Y904020D02*
D03*
X1407000Y952000D02*
D03*
X1444250Y906000D02*
D03*
X1315221Y888500D02*
D03*
X1344676Y891032D02*
D03*
X1464000Y968000D02*
D03*
X1041000Y976000D02*
D03*
X1292000Y937000D02*
D03*
X1276000Y963000D02*
D03*
X1282000Y1009000D02*
D03*
X1329000Y954024D02*
D03*
X1011680Y943380D02*
D03*
X1462000Y990900D02*
D03*
X1426000Y980000D02*
D03*
D55*
X1134250Y1013500D02*
D03*
D56*
X1161430Y954820D02*
D03*
X1132000Y917310D02*
D03*
X991750Y1010750D02*
D03*
Y992500D02*
D03*
X1260000Y933500D02*
D03*
X1211250Y967750D02*
D03*
D57*
X1036750Y932440D02*
D03*
X1432750Y922000D02*
D03*
M02*
