G04*
G04 #@! TF.GenerationSoftware,Altium Limited,Altium Designer,22.6.1 (34)*
G04*
G04 Layer_Color=8421504*
%FSLAX44Y44*%
%MOMM*%
G71*
G04*
G04 #@! TF.SameCoordinates,499910AD-9B8C-4153-9010-BA54DE613A27*
G04*
G04*
G04 #@! TF.FilePolarity,Positive*
G04*
G01*
G75*
%ADD17R,1.1000X1.1000*%
%ADD18R,1.1000X1.1000*%
%ADD19R,0.5000X0.5000*%
%ADD20R,0.5000X0.5000*%
%ADD21R,2.4000X4.0000*%
%ADD22R,1.6000X0.7500*%
%ADD23R,1.8000X1.4000*%
%ADD24R,0.6000X0.6000*%
%ADD25R,1.5000X2.6000*%
%ADD26R,0.3500X0.8000*%
%ADD27R,0.8000X0.9000*%
%ADD28R,1.0000X1.0000*%
%ADD29R,0.6500X0.6000*%
%ADD30O,1.9000X0.7000*%
%ADD31R,0.5000X1.0000*%
%ADD32R,1.9500X0.6500*%
D17*
X1056772Y967232D02*
D03*
X1073272D02*
D03*
X1178750Y884250D02*
D03*
X1195250D02*
D03*
X1140750Y884500D02*
D03*
X1157250D02*
D03*
X956000Y1010750D02*
D03*
X972500D02*
D03*
D18*
X1462278Y908182D02*
D03*
Y924682D02*
D03*
D19*
X1414000Y1005000D02*
D03*
Y995000D02*
D03*
X1077000Y1014000D02*
D03*
Y1004000D02*
D03*
X1065276Y1013968D02*
D03*
Y1003968D02*
D03*
X1463294Y882984D02*
D03*
Y892984D02*
D03*
D20*
X1074000Y989250D02*
D03*
X1064000D02*
D03*
X980500Y968250D02*
D03*
X990500D02*
D03*
X1407750Y931000D02*
D03*
X1417750D02*
D03*
X1348250Y1013750D02*
D03*
X1358250D02*
D03*
X1322250Y1015000D02*
D03*
X1332250D02*
D03*
X1020238Y969264D02*
D03*
X1010238D02*
D03*
D21*
X1349000Y939000D02*
D03*
X1225000D02*
D03*
D22*
X1406746Y976704D02*
D03*
X1407000Y952000D02*
D03*
X1009015Y988408D02*
D03*
X1008761Y1013112D02*
D03*
D23*
X1380998Y976676D02*
D03*
Y950676D02*
D03*
X1039876Y984966D02*
D03*
Y1010966D02*
D03*
D24*
X1463500Y979000D02*
D03*
X1453000D02*
D03*
D25*
X1441000Y899000D02*
D03*
X1381000D02*
D03*
D26*
X1249018Y1014476D02*
D03*
X1261518D02*
D03*
D27*
X1120000Y883750D02*
D03*
X1099000D02*
D03*
D28*
X1437578Y1013066D02*
D03*
Y995566D02*
D03*
X1461578Y1004316D02*
D03*
D29*
X1387500Y1013750D02*
D03*
X1377500Y993750D02*
D03*
X1396500D02*
D03*
D30*
X963141Y935385D02*
D03*
Y922685D02*
D03*
Y909985D02*
D03*
Y897285D02*
D03*
X1068141D02*
D03*
Y909985D02*
D03*
Y922685D02*
D03*
Y935385D02*
D03*
D31*
X1379500Y932000D02*
D03*
X1392500D02*
D03*
D32*
X1192034Y1013714D02*
D03*
Y1001014D02*
D03*
Y988314D02*
D03*
Y975614D02*
D03*
Y962914D02*
D03*
Y950214D02*
D03*
Y937514D02*
D03*
Y924814D02*
D03*
Y912114D02*
D03*
Y899414D02*
D03*
X1097534D02*
D03*
Y912114D02*
D03*
Y924814D02*
D03*
Y937514D02*
D03*
Y950214D02*
D03*
Y962914D02*
D03*
Y975614D02*
D03*
Y988314D02*
D03*
Y1001014D02*
D03*
Y1013714D02*
D03*
M02*
