M48
;Layer_Color=9474304
;FILE_FORMAT=2:4
METRIC,LZ
;TYPE=PLATED
T1F00S00C0.3000
T2F00S00C0.5000
T3F00S00C0.7000
T4F00S00C0.8000
T5F00S00C1.1000
T6F00S00C2.5000
%
T01
X9865Y885
X1003182Y889992
X101125Y9115
X98475Y90725
X986Y94525
X101457Y94338
X1024525Y949102
X1038606Y96571
X1037082Y975968
X1024382Y981202
X1055402Y1002222
X1114044Y1001522
X111675Y1013
X113425Y10135
X115025Y100075
X1162812Y1000252
X117525Y10145
X1187858Y1013714
X1170164Y967086
X115625Y96825
X116143Y955154
X114575Y9555
X1133Y94975
X1126521Y935298
X111675Y91875
X111825Y965
X1073Y94675
X1048512Y933704
X1037341Y929659
X104925Y90175
X110175Y88375
X116925Y90394
X117425Y9365
X977138Y967232
X924306Y964438
X93175Y101
X1209294Y983488
X121125Y96775
X121975Y90763
X1232722
X1244614Y90799
X124425Y918
X126825Y9075
X128475Y9095
X1292Y937
X1303Y965
X1276Y963
X1282Y1009
X1307Y992152
X1329Y954024
X134675Y94175
X1380998Y954176
X1407Y952
X14215Y93075
X143275Y922
X140975Y9185
Y9095
Y9005
Y8915
X139575Y89125
X13965Y90175
X140075Y9185
X139175
X138275
X137375
X1344676Y891032
X1319056Y90402
X144425Y906
X1464Y90875
X14635Y882412
X1427734Y978916
X142425Y99875
T02
X955548Y1010158
X990346Y992886
X1009396Y1012698
X1462024Y990346
X1464818Y967486
T03
X1132586Y916884
T04
X1315221Y8885
X1315971Y9335
T05
X8508Y917
X876454
X902108
X927762
X9054Y986
Y10114
X8804
X855
X853584Y986
X879492
X1488Y988
Y9626
X1513
X1513654Y988
X1514654Y9094
X1489
Y884
X1514
T06
X949Y977
X1442Y95
M30
