M48
;Layer_Color=9474304
;FILE_FORMAT=4:4
METRIC,LZ
;TYPE=PLATED
T1F00S00C0.5080
T3F00S00C1.1000
T4F00S00C2.5000
%
T01
X00988548Y0088773
X00995141Y00908304
X0098Y0093
X01025Y0094
X01025657Y009559
X01014476Y00960374
X01049Y00974
X01066692Y00951084
X01044Y00932
X0111405Y00948456
X0112522Y00950214
X01126744Y00969264
X0114427Y00964946
X011502Y00999949
X01161249Y01001121
X011764Y01005441
X0113875Y01003
X01126Y01005
X011141Y01002
X0103135Y010125
X00987298Y009905
X0095142Y01012
X00932Y01017
X01170324Y00928231
X01170178Y00905256
X01238Y00907542
X01260602Y00913384
X01276Y00908
X01298Y00904
X01297641Y0088342
X01285494Y0092583
X01280922Y009376
X01276Y00963
X01303Y00965
X01315Y00955
X01314958Y00990854
X01305776Y01003224
X01275Y01006
X0122562Y01000506
X01246124Y00928116
X01325372Y00910336
X01345928Y00909711
X01344676Y00891032
X0136992Y00952
X01369666Y00971625
X0136271Y00995172
X01387991Y00997204
X0139279Y0100584
X01374Y01015
X01425956Y00999236
X01429115Y00981964
X01438Y0098342
X01461008Y00988568
X01462786Y00971296
X01478788Y00930148
X01441902Y00916369
X01430528Y00926084
X0141908Y0092116
X01419098Y00911098
T03
X008508Y00917
X00876454
X00902108
X00927762
X009054Y00986
Y010114
X008804
X00855
X00853584Y00986
X00879492
X01488Y00988
Y009626
X01513
X01513654Y00988
X01514654Y009094
X01489
Y00884
X01514
T04
X00954Y00977
X01442Y0095
M30
