M48
;Layer_Color=9474304
;FILE_FORMAT=2:4
METRIC,LZ
;TYPE=PLATED
T1F00S00C0.3000
T2F00S00C0.5000
T3F00S00C1.1000
T4F00S00C2.5000
%
T01
X9865Y885
X1003182Y889992
X101125Y9115
X98475Y90725
X986Y94525
X101168Y94338
X1024Y950218
X103675Y93244
X10475Y93225
X104925Y90175
X1073Y94675
X1057Y98175
X1041Y976
X9995Y97675
X9805Y96825
X93175Y101
X111675Y1013
X11145Y100275
X113425Y10135
X115025Y100075
X11645Y100325
X117525Y10145
X1170164Y967086
X115625Y96825
X114575Y9555
X1133Y94975
X1126521Y935298
X111675Y91875
X111825Y965
X117425Y9365
X116925Y90394
X110175Y88375
X121975Y90763
X1232722
X1244614Y90799
X124425Y918
X126825Y9075
X128475Y9095
X1292Y937
X1315971Y9335
X1319056Y90402
X1315221Y8885
X1344676Y891032
X139575Y89125
X13965Y90175
X140975Y9005
Y8915
Y9095
Y9185
X140075
X139175
X138275
X137375
X138125Y955
X1407Y952
X14215Y93075
X143275Y922
X144425Y906
X1464Y90875
X14635Y882412
X1464Y968
X1462Y9909
X142425Y99875
X1426Y98
X134675Y94175
X1329Y954024
X1303Y965
X1276Y963
X1282Y1009
X1307Y992
X12265Y100275
X1210077Y1003081
X1218Y1015
T02
X99175Y101075
T03
X8508Y917
X876454
X902108
X927762
X9054Y986
Y10114
X8804
X855
X853584Y986
X879492
X1488Y988
Y9626
X1513
X1513654Y988
X1514654Y9094
X1489
Y884
X1514
T04
X949Y977
X1442Y95
M30
